<svg xmlns="http://www.w3.org/2000/svg" height="793.707" width="793.707">
    <path d="M575.824 435.76v15.56h-15.56v-15.56h15.56m0-15.56v15.56h-15.56V420.2h15.56m0-15.56v15.56h-15.56v-15.56h15.56" fill="#ba151b"/>
    <path d="M575.824 389.067v15.573h-15.56v-15.573h15.56m0-15.56v15.56h-15.56v-15.56h15.56" fill="#cf181f"/>
    <path d="M575.824 357.947v15.56h-15.56v-15.56h15.56" fill="#df1a21"/>
    <path d="M560.264 529.133v15.56h-15.56v-15.56h15.56m0-15.56v15.56h-15.56v-15.56h15.56m0-15.56v15.56h-15.56v-15.56h15.56m0-15.56v15.56h-15.56v-15.56h15.56m0-15.573v15.573h-15.56V466.88h15.56" fill="#ac1318"/>
    <path d="M560.264 451.32v15.56h-15.56v-15.56h15.56m0-15.56v15.56h-15.56v-15.56h15.56" fill="#ba151b"/>
    <path d="M560.264 420.2v15.56h-15.56V420.2h15.56m0-15.56v15.56h-15.56v-15.56h15.56" fill="#cf181f"/>
    <path d="M560.264 389.067v15.573h-15.56v-15.573h15.56m0-15.56v15.56h-15.56v-15.56h15.56m0-15.56v15.56h-15.56v-15.56h15.56" fill="#df1a21"/>
    <path d="M560.264 295.693v15.56h-15.56v-15.56h15.56" fill="#f5d806"/>
    <path d="M560.264 280.133v15.56h-15.56v-15.56h15.56" fill="#fff430"/>
    <path d="M560.264 264.573v15.56h-15.56v-15.56h15.56" fill="#f5d806"/>
    <path d="M544.704 591.387v15.56h-15.573v-15.56h15.573m0-15.56v15.56h-15.573v-15.56h15.573m0-15.56v15.56h-15.573v-15.56h15.573m0-15.574v15.574h-15.573v-15.574h15.573" fill="#ac1318"/>
    <path d="M544.704 529.133v15.56h-15.573v-15.56h15.573m0-15.56v15.56h-15.573v-15.56h15.573m0-15.56v15.56h-15.573v-15.56h15.573m0-15.56v15.56h-15.573v-15.56h15.573" fill="#ba151b"/>
    <path d="M544.704 466.88v15.573h-15.573V466.88h15.573m0-15.56v15.56h-15.573v-15.56h15.573m0-15.56v15.56h-15.573v-15.56h15.573" fill="#cf181f"/>
    <path d="M544.704 420.2v15.56h-15.573V420.2h15.573m0-15.56v15.56h-15.573v-15.56h15.573m0-15.573v15.573h-15.573v-15.573h15.573m0-15.56v15.56h-15.573v-15.56h15.573" fill="#df1a21"/>
    <path d="M544.704 357.947v15.56h-15.573v-15.56h15.573" fill="#ea6d15"/>
    <path d="M544.704 342.387v15.56h-15.573v-15.56h15.573m0-15.56v15.56h-15.573v-15.56h15.573" fill="#f5d806"/>
    <path d="M544.704 311.253v15.574h-15.573v-15.574h15.573" fill="#fff430"/>
    <path d="M544.704 295.693v15.56h-15.573v-15.56h15.573m0-15.56v15.56h-15.573v-15.56h15.573" fill="#f5d806"/>
    <path d="M544.704 264.573v15.56h-15.573v-15.56h15.573" fill="#f2a60e"/>
    <path d="M529.13 606.947v15.573h-15.56v-15.573h15.56m0-15.56v15.56h-15.56v-15.56h15.56m0-15.56v15.56h-15.56v-15.56h15.56m0-15.56v15.56h-15.56v-15.56h15.56" fill="#ac1318"/>
    <path d="M529.13 544.693v15.574h-15.56v-15.574h15.56m0-15.56v15.56h-15.56v-15.56h15.56" fill="#ba151b"/>
    <path d="M529.13 513.573v15.56h-15.56v-15.56h15.56m0-15.56v15.56h-15.56v-15.56h15.56m0-15.56v15.56h-15.56v-15.56h15.56m0-15.573v15.573h-15.56V466.88h15.56" fill="#cf181f"/>
    <path d="M529.13 451.32v15.56h-15.56v-15.56h15.56m0-15.56v15.56h-15.56v-15.56h15.56m0-15.56v15.56h-15.56V420.2h15.56m0-15.56v15.56h-15.56v-15.56h15.56m0-15.573v15.573h-15.56v-15.573h15.56" fill="#df1a21"/>
    <path d="M529.13 373.507v15.56h-15.56v-15.56h15.56" fill="#f5d806"/>
    <path d="M529.13 357.947v15.56h-15.56v-15.56h15.56" fill="#fff430"/>
    <path d="M529.13 342.387v15.56h-15.56v-15.56h15.56m0-15.56v15.56h-15.56v-15.56h15.56m0-15.574v15.574h-15.56v-15.574h15.56m0-15.56v15.56h-15.56v-15.56h15.56" fill="#f5d806"/>
    <path d="M529.13 280.133v15.56h-15.56v-15.56h15.56" fill="#f2a60e"/>
    <path d="M529.13 264.573v15.56h-15.56v-15.56h15.56" fill="#fff430"/>
    <path d="M529.13 217.88v15.56h-15.56v-15.56h15.56" fill="#f5d806"/>
    <path d="M529.13 202.32v15.56h-15.56v-15.56h15.56" fill="#fff430"/>
    <path d="M529.13 186.76v15.56h-15.56v-15.56h15.56" fill="#f5d806"/>
    <path d="M513.57 606.947v15.573h-15.56v-15.573h15.56m0-15.56v15.56h-15.56v-15.56h15.56m0-15.56v15.56h-15.56v-15.56h15.56" fill="#ac1318"/>
    <path d="M513.57 560.267v15.56h-15.56v-15.56h15.56m0-15.574v15.574h-15.56v-15.574h15.56m0-15.56v15.56h-15.56v-15.56h15.56" fill="#ba151b"/>
    <path d="M513.57 513.573v15.56h-15.56v-15.56h15.56m0-15.56v15.56h-15.56v-15.56h15.56m0-15.56v15.56h-15.56v-15.56h15.56" fill="#cf181f"/>
    <path d="M513.57 466.88v15.573h-15.56V466.88h15.56m0-15.56v15.56h-15.56v-15.56h15.56m0-15.56v15.56h-15.56v-15.56h15.56m0-15.56v15.56h-15.56V420.2h15.56m0-15.56v15.56h-15.56v-15.56h15.56" fill="#df1a21"/>
    <path d="M513.57 389.067v15.573h-15.56v-15.573h15.56" fill="#f2a60e"/>
    <path d="M513.57 373.507v15.56h-15.56v-15.56h15.56" fill="#ea6d15"/>
    <path d="M513.57 357.947v15.56h-15.56v-15.56h15.56" fill="#f5d806"/>
    <path d="M513.57 342.387v15.56h-15.56v-15.56h15.56m0-15.56v15.56h-15.56v-15.56h15.56" fill="#ea6d15"/>
    <path d="M513.57 311.253v15.574h-15.56v-15.574h15.56" fill="#f2a60e"/>
    <path d="M513.57 295.693v15.56h-15.56v-15.56h15.56" fill="#ea6d15"/>
    <path d="M513.57 280.133v15.56h-15.56v-15.56h15.56" fill="#f2a60e"/>
    <path d="M513.57 264.573v15.56h-15.56v-15.56h15.56m0-15.56v15.56h-15.56v-15.56h15.56" fill="#f5d806"/>
    <path d="M513.57 233.44v15.573h-15.56V233.44h15.56" fill="#fff430"/>
    <path d="M513.57 217.88v15.56h-15.56v-15.56h15.56m0-15.56v15.56h-15.56v-15.56h15.56" fill="#f5d806"/>
    <path d="M513.57 186.76v15.56h-15.56v-15.56h15.56" fill="#f2a60e"/>
    <path d="M498.01 606.947v15.573h-15.56v-15.573h15.56m0-15.56v15.56h-15.56v-15.56h15.56m0-15.56v15.56h-15.56v-15.56h15.56" fill="#ac1318"/>
    <path d="M498.01 560.267v15.56h-15.56v-15.56h15.56m0-15.574v15.574h-15.56v-15.574h15.56" fill="#ba151b"/>
    <path d="M498.01 529.133v15.56h-15.56v-15.56h15.56m0-15.56v15.56h-15.56v-15.56h15.56m0-15.56v15.56h-15.56v-15.56h15.56" fill="#cf181f"/>
    <path d="M498.01 482.453v15.56h-15.56v-15.56h15.56m0-15.573v15.573h-15.56V466.88h15.56m0-15.56v15.56h-15.56v-15.56h15.56m0-15.56v15.56h-15.56v-15.56h15.56m0-15.56v15.56h-15.56V420.2h15.56m0-15.56v15.56h-15.56v-15.56h15.56" fill="#df1a21"/>
    <path d="M498.01 389.067v15.573h-15.56v-15.573h15.56" fill="#ea6d15"/>
    <path d="M498.01 373.507v15.56h-15.56v-15.56h15.56m0-15.56v15.56h-15.56v-15.56h15.56m0-15.56v15.56h-15.56v-15.56h15.56m0-15.56v15.56h-15.56v-15.56h15.56" fill="#f2a60e"/>
    <path d="M498.01 311.253v15.574h-15.56v-15.574h15.56" fill="#ea6d15"/>
    <path d="M498.01 295.693v15.56h-15.56v-15.56h15.56m0-15.56v15.56h-15.56v-15.56h15.56" fill="#f2a60e"/>
    <path d="M498.01 264.573v15.56h-15.56v-15.56h15.56m0-15.56v15.56h-15.56v-15.56h15.56" fill="#f5d806"/>
    <path d="M498.01 233.44v15.573h-15.56V233.44h15.56m0-15.56v15.56h-15.56v-15.56h15.56m0-15.56v15.56h-15.56v-15.56h15.56" fill="#f2a60e"/>
    <path d="M482.45 606.947v15.573h-15.56v-15.573h15.56m0-15.56v15.56h-15.56v-15.56h15.56m0-15.56v15.56h-15.56v-15.56h15.56" fill="#ac1318"/>
    <path d="M482.45 560.267v15.56h-15.56v-15.56h15.56" fill="#ba151b"/>
    <path d="M482.45 544.693v15.574h-15.56v-15.574h15.56m0-15.56v15.56h-15.56v-15.56h15.56m0-15.56v15.56h-15.56v-15.56h15.56m0-15.56v15.56h-15.56v-15.56h15.56" fill="#cf181f"/>
    <path d="M482.45 482.453v15.56h-15.56v-15.56h15.56m0-15.573v15.573h-15.56V466.88h15.56m0-15.56v15.56h-15.56v-15.56h15.56m0-15.56v15.56h-15.56v-15.56h15.56m0-15.56v15.56h-15.56V420.2h15.56" fill="#df1a21"/>
    <path d="M482.45 404.64v15.56h-15.56v-15.56h15.56m0-15.573v15.573h-15.56v-15.573h15.56m0-15.56v15.56h-15.56v-15.56h15.56" fill="#ea6d15"/>
    <path d="M482.45 357.947v15.56h-15.56v-15.56h15.56" fill="#f2a60e"/>
    <path d="M482.45 342.387v15.56h-15.56v-15.56h15.56" fill="#ea6d15"/>
    <path d="M482.45 326.827v15.56h-15.56v-15.56h15.56" fill="#f5d806"/>
    <path d="M482.45 311.253v15.574h-15.56v-15.574h15.56m0-15.56v15.56h-15.56v-15.56h15.56" fill="#ea6d15"/>
    <path d="M482.45 280.133v15.56h-15.56v-15.56h15.56m0-15.56v15.56h-15.56v-15.56h15.56" fill="#f2a60e"/>
    <path d="M482.45 249.013v15.56h-15.56v-15.56h15.56" fill="#ea6d15"/>
    <path d="M482.45 233.44v15.573h-15.56V233.44h15.56" fill="#ea6d15"/>
    <path d="M482.45 217.88v15.56h-15.56v-15.56h15.56" fill="#f2a60e"/>
    <path d="M466.89 606.947v15.573h-15.573v-15.573h15.574m-.001-15.56v15.56h-15.573v-15.56h15.574" fill="#ac1318"/>
    <path d="M466.89 575.827v15.56h-15.573v-15.56h15.574m-.001-15.56v15.56h-15.573v-15.56h15.574" fill="#ba151b"/>
    <path d="M466.89 544.693v15.574h-15.573v-15.574h15.574m-.001-15.56v15.56h-15.573v-15.56h15.574m-.001-15.56v15.56h-15.573v-15.56h15.574" fill="#cf181f"/>
    <path d="M466.89 498.013v15.56h-15.573v-15.56h15.574m-.001-15.56v15.56h-15.573v-15.56h15.574m-.001-15.573v15.573h-15.573V466.88h15.574m-.001-15.56v15.56h-15.573v-15.56h15.574m-.001-15.56v15.56h-15.573v-15.56h15.574m-.001-15.56v15.56h-15.573V420.2h15.574" fill="#df1a21"/>
    <path d="M466.89 404.64v15.56h-15.573v-15.56h15.574" fill="#f2a60e"/>
    <path d="M466.89 389.067v15.573h-15.573v-15.573h15.574" fill="#ea6d15"/>
    <path d="M466.89 373.507v15.56h-15.573v-15.56h15.574" fill="#fff430"/>
    <path d="M466.89 357.947v15.56h-15.573v-15.56h15.574m-.001-15.56v15.56h-15.573v-15.56h15.574m-.001-15.56v15.56h-15.573v-15.56h15.574" fill="#f5d806"/>
    <path d="M466.89 311.253v15.574h-15.573v-15.574h15.574m-.001-15.56v15.56h-15.573v-15.56h15.574" fill="#fff430"/>
    <path d="M466.89 280.133v15.56h-15.573v-15.56h15.574m-.001-15.56v15.56h-15.573v-15.56h15.574" fill="#f5d806"/>
    <path d="M466.89 249.013v15.56h-15.573v-15.56h15.574" fill="#ea6d15"/>
    <path d="M466.89 233.44v15.573h-15.573V233.44h15.574" fill="#ea6d15"/>
    <path d="M451.317 606.947v15.573h-15.56v-15.573h15.56m0-15.56v15.56h-15.56v-15.56h15.56" fill="#ac1318"/>
    <path d="M451.317 575.827v15.56h-15.56v-15.56h15.56m0-15.56v15.56h-15.56v-15.56h15.56" fill="#ba151b"/>
    <path d="M451.317 544.693v15.574h-15.56v-15.574h15.56m0-15.56v15.56h-15.56v-15.56h15.56m0-15.56v15.56h-15.56v-15.56h15.56" fill="#cf181f"/>
    <path d="M451.317 498.013v15.56h-15.56v-15.56h15.56m0-15.56v15.56h-15.56v-15.56h15.56m0-15.573v15.573h-15.56V466.88h15.56m0-15.56v15.56h-15.56v-15.56h15.56m0-15.56v15.56h-15.56v-15.56h15.56" fill="#df1a21"/>
    <path d="M451.317 420.2v15.56h-15.56V420.2h15.56" fill="#ea6d15"/>
    <path d="M451.317 404.64v15.56h-15.56v-15.56h15.56" fill="#f2a60e"/>
    <path d="M451.317 389.067v15.573h-15.56v-15.573h15.56m0-15.56v15.56h-15.56v-15.56h15.56m0-15.56v15.56h-15.56v-15.56h15.56" fill="#f5d806"/>
    <path d="M451.317 342.387v15.56h-15.56v-15.56h15.56" fill="#fff430"/>
    <path d="M451.317 326.827v15.56h-15.56v-15.56h15.56m0-15.574v15.574h-15.56v-15.574h15.56m0-15.56v15.56h-15.56v-15.56h15.56m0-15.56v15.56h-15.56v-15.56h15.56" fill="#f5d806"/>
    <path d="M451.317 264.573v15.56h-15.56v-15.56h15.56m0-62.253v15.56h-15.56v-15.56h15.56" fill="#fff430"/>
    <path d="M435.757 606.947v15.573h-15.56v-15.573h15.56m0-15.56v15.56h-15.56v-15.56h15.56" fill="#ac1318"/>
    <path d="M435.757 575.827v15.56h-15.56v-15.56h15.56m0-15.56v15.56h-15.56v-15.56h15.56" fill="#ba151b"/>
    <path d="M435.757 544.693v15.574h-15.56v-15.574h15.56m0-15.56v15.56h-15.56v-15.56h15.56" fill="#cf181f"/>
    <path d="M435.757 513.573v15.56h-15.56v-15.56h15.56m0-15.56v15.56h-15.56v-15.56h15.56m0-15.56v15.56h-15.56v-15.56h15.56m0-15.573v15.573h-15.56V466.88h15.56m0-15.56v15.56h-15.56v-15.56h15.56m0-15.56v15.56h-15.56v-15.56h15.56" fill="#df1a21"/>
    <path d="M435.757 420.2v15.56h-15.56V420.2h15.56m0-15.56v15.56h-15.56v-15.56h15.56m0-15.573v15.573h-15.56v-15.573h15.56m0-15.56v15.56h-15.56v-15.56h15.56" fill="#ea6d15"/>
    <path d="M435.757 357.947v15.56h-15.56v-15.56h15.56" fill="#f2a60e"/>
    <path d="M435.757 342.387v15.56h-15.56v-15.56h15.56" fill="#f5d806"/>
    <path d="M435.757 326.827v15.56h-15.56v-15.56h15.56" fill="#f2a60e"/>
    <path d="M435.757 311.253v15.574h-15.56v-15.574h15.56" fill="#ea6d15"/>
    <path d="M435.757 295.693v15.56h-15.56v-15.56h15.56" fill="#f2a60e"/>
    <path d="M435.757 280.133v15.56h-15.56v-15.56h15.56" fill="#ea6d15"/>
    <path d="M435.757 264.573v15.56h-15.56v-15.56h15.56m0-15.56v15.56h-15.56v-15.56h15.56" fill="#f5d806"/>
    <path d="M435.757 233.44v15.573h-15.56V233.44h15.56" fill="#f5d806"/>
    <path d="M435.757 217.88v15.56h-15.56v-15.56h15.56m0-15.56v15.56h-15.56v-15.56h15.56" fill="#fff430"/>
    <path d="M420.197 606.947v15.573h-15.56v-15.573h15.56m0-15.56v15.56h-15.56v-15.56h15.56" fill="#ac1318"/>
    <path d="M420.197 575.827v15.56h-15.56v-15.56h15.56m0-15.56v15.56h-15.56v-15.56h15.56" fill="#ba151b"/>
    <path d="M420.197 544.693v15.574h-15.56v-15.574h15.56m0-15.56v15.56h-15.56v-15.56h15.56" fill="#cf181f"/>
    <path d="M420.197 513.573v15.56h-15.56v-15.56h15.56m0-15.56v15.56h-15.56v-15.56h15.56m0-15.56v15.56h-15.56v-15.56h15.56m0-15.573v15.573h-15.56V466.88h15.56m0-15.56v15.56h-15.56v-15.56h15.56m0-15.56v15.56h-15.56v-15.56h15.56" fill="#df1a21"/>
    <path d="M420.197 420.2v15.56h-15.56V420.2h15.56" fill="#f2a60e"/>
    <path d="M420.197 404.64v15.56h-15.56v-15.56h15.56m0-15.573v15.573h-15.56v-15.573h15.56m0-15.56v15.56h-15.56v-15.56h15.56m0-15.56v15.56h-15.56v-15.56h15.56m0-15.56v15.56h-15.56v-15.56h15.56m0-15.56v15.56h-15.56v-15.56h15.56m0-15.574v15.574h-15.56v-15.574h15.56" fill="#ea6d15"/>
    <path d="M420.197 295.693v15.56h-15.56v-15.56h15.56" fill="#f2a60e"/>
    <path d="M420.197 280.133v15.56h-15.56v-15.56h15.56m0-15.56v15.56h-15.56v-15.56h15.56" fill="#f5d806"/>
    <path d="M420.197 249.013v15.56h-15.56v-15.56h15.56" fill="#fff430"/>
    <path d="M420.197 233.44v15.573h-15.56V233.44h15.56m0-15.56v15.56h-15.56v-15.56h15.56" fill="#f5d806"/>
    <path d="M420.197 202.32v15.56h-15.56v-15.56h15.56" fill="#ea6d15"/>
    <path d="M404.637 606.947v15.573h-15.56v-15.573h15.56m0-15.56v15.56h-15.56v-15.56h15.56" fill="#ac1318"/>
    <path d="M404.637 575.827v15.56h-15.56v-15.56h15.56m0-15.56v15.56h-15.56v-15.56h15.56" fill="#ba151b"/>
    <path d="M404.637 544.693v15.574h-15.56v-15.574h15.56m0-15.56v15.56h-15.56v-15.56h15.56" fill="#cf181f"/>
    <path d="M404.637 513.573v15.56h-15.56v-15.56h15.56m0-15.56v15.56h-15.56v-15.56h15.56m0-15.56v15.56h-15.56v-15.56h15.56m0-15.573v15.573h-15.56V466.88h15.56m0-15.56v15.56h-15.56v-15.56h15.56m0-15.56v15.56h-15.56v-15.56h15.56" fill="#df1a21"/>
    <path d="M404.637 420.2v15.56h-15.56V420.2h15.56" fill="#ea6d15"/>
    <path d="M404.637 404.64v15.56h-15.56v-15.56h15.56m0-15.573v15.573h-15.56v-15.573h15.56m0-15.56v15.56h-15.56v-15.56h15.56" fill="#fff430"/>
    <path d="M404.637 357.947v15.56h-15.56v-15.56h15.56m0-15.56v15.56h-15.56v-15.56h15.56" fill="#f2a60e"/>
    <path d="M404.637 326.827v15.56h-15.56v-15.56h15.56m0-15.574v15.574h-15.56v-15.574h15.56" fill="#f5d806"/>
    <path d="M404.637 295.693v15.56h-15.56v-15.56h15.56m0-15.56v15.56h-15.56v-15.56h15.56m0-15.56v15.56h-15.56v-15.56h15.56" fill="#f2a60e"/>
    <path d="M404.637 249.013v15.56h-15.56v-15.56h15.56" fill="#f5d806"/>
    <path d="M404.637 233.44v15.573h-15.56V233.44h15.56m0-15.56v15.56h-15.56v-15.56h15.56" fill="#ea6d15"/>
    <path d="M389.077 606.947v15.573h-15.573v-15.573h15.573m0-15.56v15.56h-15.573v-15.56h15.573" fill="#ac1318"/>
    <path d="M389.077 575.827v15.56h-15.573v-15.56h15.573m0-15.56v15.56h-15.573v-15.56h15.573" fill="#ba151b"/>
    <path d="M389.077 544.693v15.574h-15.573v-15.574h15.573m0-15.56v15.56h-15.573v-15.56h15.573m0-15.56v15.56h-15.573v-15.56h15.573" fill="#cf181f"/>
    <path d="M389.077 498.013v15.56h-15.573v-15.56h15.573m0-15.56v15.56h-15.573v-15.56h15.573m0-15.573v15.573h-15.573V466.88h15.573m0-15.56v15.56h-15.573v-15.56h15.573m0-15.56v15.56h-15.573v-15.56h15.573" fill="#df1a21"/>
    <path d="M389.077 420.2v15.56h-15.573V420.2h15.573" fill="#ea6d15"/>
    <path d="M389.077 404.64v15.56h-15.573v-15.56h15.573m0-15.573v15.573h-15.573v-15.573h15.573m0-15.56v15.56h-15.573v-15.56h15.573" fill="#f2a60e"/>
    <path d="M389.077 357.947v15.56h-15.573v-15.56h15.573m0-15.56v15.56h-15.573v-15.56h15.573m0-15.56v15.56h-15.573v-15.56h15.573m0-15.574v15.574h-15.573v-15.574h15.573" fill="#fff430"/>
    <path d="M389.077 295.693v15.56h-15.573v-15.56h15.573m0-15.56v15.56h-15.573v-15.56h15.573m0-15.56v15.56h-15.573v-15.56h15.573m0-15.56v15.56h-15.573v-15.56h15.573" fill="#ea6d15"/>
    <path d="M389.077 233.44v15.573h-15.573V233.44h15.573" fill="#ea6d15"/>
    <path d="M373.504 606.947v15.573h-15.56v-15.573h15.56m0-15.56v15.56h-15.56v-15.56h15.56" fill="#ac1318"/>
    <path d="M373.504 575.827v15.56h-15.56v-15.56h15.56m0-15.56v15.56h-15.56v-15.56h15.56" fill="#ba151b"/>
    <path d="M373.504 544.693v15.574h-15.56v-15.574h15.56m0-15.56v15.56h-15.56v-15.56h15.56m0-15.56v15.56h-15.56v-15.56h15.56" fill="#cf181f"/>
    <path d="M373.504 498.013v15.56h-15.56v-15.56h15.56m0-15.56v15.56h-15.56v-15.56h15.56m0-15.573v15.573h-15.56V466.88h15.56m0-15.56v15.56h-15.56v-15.56h15.56m0-15.56v15.56h-15.56v-15.56h15.56" fill="#df1a21"/>
    <path d="M373.504 420.2v15.56h-15.56V420.2h15.56m0-15.56v15.56h-15.56v-15.56h15.56" fill="#ea6d15"/>
    <path d="M373.504 389.067v15.573h-15.56v-15.573h15.56" fill="#fff430"/>
    <path d="M373.504 373.507v15.56h-15.56v-15.56h15.56" fill="#f2a60e"/>
    <path d="M373.504 357.947v15.56h-15.56v-15.56h15.56m0-15.56v15.56h-15.56v-15.56h15.56m0-15.56v15.56h-15.56v-15.56h15.56m0-15.574v15.574h-15.56v-15.574h15.56" fill="#f5d806"/>
    <path d="M373.504 295.693v15.56h-15.56v-15.56h15.56m0-15.56v15.56h-15.56v-15.56h15.56m0-15.56v15.56h-15.56v-15.56h15.56" fill="#fff430"/>
    <path d="M373.504 249.013v15.56h-15.56v-15.56h15.56" fill="#f5d806"/>
    <path d="M373.504 233.44v15.573h-15.56V233.44h15.56m0-15.56v15.56h-15.56v-15.56h15.56" fill="#f5d806"/>
    <path d="M373.504 202.32v15.56h-15.56v-15.56h15.56" fill="#fff430"/>
    <path d="M373.504 186.76v15.56h-15.56v-15.56h15.56" fill="#f5d806"/>
    <path d="M357.944 606.947v15.573h-15.56v-15.573h15.56m0-15.56v15.56h-15.56v-15.56h15.56" fill="#ac1318"/>
    <path d="M357.944 575.827v15.56h-15.56v-15.56h15.56m0-15.56v15.56h-15.56v-15.56h15.56" fill="#ba151b"/>
    <path d="M357.944 544.693v15.574h-15.56v-15.574h15.56m0-15.56v15.56h-15.56v-15.56h15.56m0-15.56v15.56h-15.56v-15.56h15.56" fill="#cf181f"/>
    <path d="M357.944 498.013v15.56h-15.56v-15.56h15.56m0-15.56v15.56h-15.56v-15.56h15.56m0-15.573v15.573h-15.56V466.88h15.56m0-15.56v15.56h-15.56v-15.56h15.56m0-15.56v15.56h-15.56v-15.56h15.56" fill="#df1a21"/>
    <path d="M357.944 420.2v15.56h-15.56V420.2h15.56m0-15.56v15.56h-15.56v-15.56h15.56m0-15.573v15.573h-15.56v-15.573h15.56" fill="#ea6d15"/>
    <path d="M357.944 373.507v15.56h-15.56v-15.56h15.56" fill="#f2a60e"/>
    <path d="M357.944 357.947v15.56h-15.56v-15.56h15.56" fill="#fff430"/>
    <path d="M357.944 342.387v15.56h-15.56v-15.56h15.56" fill="#f2a60e"/>
    <path d="M357.944 326.827v15.56h-15.56v-15.56h15.56" fill="#f5d806"/>
    <path d="M357.944 311.253v15.574h-15.56v-15.574h15.56m0-15.56v15.56h-15.56v-15.56h15.56" fill="#fff430"/>
    <path d="M357.944 280.133v15.56h-15.56v-15.56h15.56" fill="#ea6d15"/>
    <path d="M357.944 264.573v15.56h-15.56v-15.56h15.56m0-15.56v15.56h-15.56v-15.56h15.56" fill="#f2a60e"/>
    <path d="M357.944 233.44v15.573h-15.56V233.44h15.56m0-15.56v15.56h-15.56v-15.56h15.56m0-15.56v15.56h-15.56v-15.56h15.56" fill="#ea6d15"/>
    <path d="M342.384 606.947v15.573h-15.56v-15.573h15.56m0-15.56v15.56h-15.56v-15.56h15.56" fill="#ac1318"/>
    <path d="M342.384 575.827v15.56h-15.56v-15.56h15.56m0-15.56v15.56h-15.56v-15.56h15.56" fill="#ba151b"/>
    <path d="M342.384 544.693v15.574h-15.56v-15.574h15.56m0-15.56v15.56h-15.56v-15.56h15.56m0-15.56v15.56h-15.56v-15.56h15.56" fill="#cf181f"/>
    <path d="M342.384 498.013v15.56h-15.56v-15.56h15.56m0-15.56v15.56h-15.56v-15.56h15.56m0-15.573v15.573h-15.56V466.88h15.56m0-15.56v15.56h-15.56v-15.56h15.56m0-15.56v15.56h-15.56v-15.56h15.56m0-15.56v15.56h-15.56V420.2h15.56" fill="#df1a21"/>
    <path d="M342.384 404.64v15.56h-15.56v-15.56h15.56" fill="#f5d806"/>
    <path d="M342.384 389.067v15.573h-15.56v-15.573h15.56m0-15.56v15.56h-15.56v-15.56h15.56m0-15.56v15.56h-15.56v-15.56h15.56m0-15.56v15.56h-15.56v-15.56h15.56m0-15.56v15.56h-15.56v-15.56h15.56m0-15.574v15.574h-15.56v-15.574h15.56" fill="#ea6d15"/>
    <path d="M342.384 295.693v15.56h-15.56v-15.56h15.56" fill="#f2a60e"/>
    <path d="M342.384 280.133v15.56h-15.56v-15.56h15.56" fill="#fff430"/>
    <path d="M342.384 264.573v15.56h-15.56v-15.56h15.56m0-15.56v15.56h-15.56v-15.56h15.56" fill="#f5d806"/>
    <path d="M342.384 233.44v15.573h-15.56V233.44h15.56" fill="#f2a60e"/>
    <path d="M342.384 217.88v15.56h-15.56v-15.56h15.56" fill="#fff430"/>
    <path d="M326.824 606.947v15.573h-15.56v-15.573h15.56m0-15.56v15.56h-15.56v-15.56h15.56" fill="#ac1318"/>
    <path d="M326.824 575.827v15.56h-15.56v-15.56h15.56m0-15.56v15.56h-15.56v-15.56h15.56m0-15.574v15.574h-15.56v-15.574h15.56" fill="#ba151b"/>
    <path d="M326.824 529.133v15.56h-15.56v-15.56h15.56m0-15.56v15.56h-15.56v-15.56h15.56m0-15.56v15.56h-15.56v-15.56h15.56" fill="#cf181f"/>
    <path d="M326.824 482.453v15.56h-15.56v-15.56h15.56m0-15.573v15.573h-15.56V466.88h15.56m0-15.56v15.56h-15.56v-15.56h15.56m0-15.56v15.56h-15.56v-15.56h15.56m0-15.56v15.56h-15.56V420.2h15.56" fill="#df1a21"/>
    <path d="M326.824 404.64v15.56h-15.56v-15.56h15.56" fill="#fff430"/>
    <path d="M326.824 389.067v15.573h-15.56v-15.573h15.56m0-15.56v15.56h-15.56v-15.56h15.56" fill="#f5d806"/>
    <path d="M326.824 357.947v15.56h-15.56v-15.56h15.56" fill="#fff430"/>
    <path d="M326.824 342.387v15.56h-15.56v-15.56h15.56m0-15.56v15.56h-15.56v-15.56h15.56" fill="#ea6d15"/>
    <path d="M326.824 311.253v15.574h-15.56v-15.574h15.56m0-15.56v15.56h-15.56v-15.56h15.56m0-15.56v15.56h-15.56v-15.56h15.56" fill="#f2a60e"/>
    <path d="M326.824 264.573v15.56h-15.56v-15.56h15.56m0-15.56v15.56h-15.56v-15.56h15.56" fill="#f5d806"/>
    <path d="M326.824 233.44v15.573h-15.56V233.44h15.56" fill="#fff430"/>
    <path d="M326.824 217.88v15.56h-15.56v-15.56h15.56" fill="#f2a60e"/>
    <path d="M311.264 606.947v15.573h-15.573v-15.573h15.573m0-15.56v15.56h-15.573v-15.56h15.573m0-15.56v15.56h-15.573v-15.56h15.573" fill="#ac1318"/>
    <path d="M311.264 560.267v15.56h-15.573v-15.56h15.573m0-15.574v15.574h-15.573v-15.574h15.573" fill="#ba151b"/>
    <path d="M311.264 529.133v15.56h-15.573v-15.56h15.573m0-15.56v15.56h-15.573v-15.56h15.573m0-15.56v15.56h-15.573v-15.56h15.573" fill="#cf181f"/>
    <path d="M311.264 482.453v15.56h-15.573v-15.56h15.573m0-15.573v15.573h-15.573V466.88h15.573m0-15.56v15.56h-15.573v-15.56h15.573m0-15.56v15.56h-15.573v-15.56h15.573m0-15.56v15.56h-15.573V420.2h15.573" fill="#df1a21"/>
    <path d="M311.264 404.64v15.56h-15.573v-15.56h15.573" fill="#ea6d15"/>
    <path d="M311.264 389.067v15.573h-15.573v-15.573h15.573" fill="#f2a60e"/>
    <path d="M311.264 373.507v15.56h-15.573v-15.56h15.573" fill="#fff430"/>
    <path d="M311.264 357.947v15.56h-15.573v-15.56h15.573m0-15.56v15.56h-15.573v-15.56h15.573m0-15.56v15.56h-15.573v-15.56h15.573" fill="#f5d806"/>
    <path d="M311.264 311.253v15.574h-15.573v-15.574h15.573m0-15.56v15.56h-15.573v-15.56h15.573m0-15.56v15.56h-15.573v-15.56h15.573" fill="#ea6d15"/>
    <path d="M311.264 264.573v15.56h-15.573v-15.56h15.573" fill="#fff430"/>
    <path d="M311.264 249.013v15.56h-15.573v-15.56h15.573" fill="#f2a60e"/>
    <path d="M311.264 233.44v15.573h-15.573V233.44h15.573" fill="#ea6d15"/>
    <path d="M295.69 606.947v15.573h-15.56v-15.573h15.56m0-15.56v15.56h-15.56v-15.56h15.56m0-15.56v15.56h-15.56v-15.56h15.56" fill="#ac1318"/>
    <path d="M295.69 560.267v15.56h-15.56v-15.56h15.56m0-15.574v15.574h-15.56v-15.574h15.56m0-15.56v15.56h-15.56v-15.56h15.56" fill="#ba151b"/>
    <path d="M295.69 513.573v15.56h-15.56v-15.56h15.56m0-15.56v15.56h-15.56v-15.56h15.56m0-15.56v15.56h-15.56v-15.56h15.56" fill="#cf181f"/>
    <path d="M295.69 466.88v15.573h-15.56V466.88h15.56m0-15.56v15.56h-15.56v-15.56h15.56m0-15.56v15.56h-15.56v-15.56h15.56m0-15.56v15.56h-15.56V420.2h15.56m0-15.56v15.56h-15.56v-15.56h15.56" fill="#df1a21"/>
    <path d="M295.69 389.067v15.573h-15.56v-15.573h15.56" fill="#ea6d15"/>
    <path d="M295.69 373.507v15.56h-15.56v-15.56h15.56m0-15.56v15.56h-15.56v-15.56h15.56m0-15.56v15.56h-15.56v-15.56h15.56" fill="#f2a60e"/>
    <path d="M295.69 326.827v15.56h-15.56v-15.56h15.56m0-15.574v15.574h-15.56v-15.574h15.56m0-15.56v15.56h-15.56v-15.56h15.56" fill="#f5d806"/>
    <path d="M295.69 280.133v15.56h-15.56v-15.56h15.56m0-15.56v15.56h-15.56v-15.56h15.56m0-15.56v15.56h-15.56v-15.56h15.56" fill="#ea6d15"/>
    <path d="M295.69 233.44v15.573h-15.56V233.44h15.56" fill="#f5d806"/>
    <path d="M295.69 217.88v15.56h-15.56v-15.56h15.56" fill="#fff430"/>
    <path d="M295.69 202.32v15.56h-15.56v-15.56h15.56" fill="#f5d806"/>
    <path d="M280.13 606.947v15.573h-15.56v-15.573h15.56m0-15.56v15.56h-15.56v-15.56h15.56m0-15.56v15.56h-15.56v-15.56h15.56m0-15.56v15.56h-15.56v-15.56h15.56" fill="#ac1318"/>
    <path d="M280.13 544.693v15.574h-15.56v-15.574h15.56m0-15.56v15.56h-15.56v-15.56h15.56m0-15.56v15.56h-15.56v-15.56h15.56" fill="#ba151b"/>
    <path d="M280.13 498.013v15.56h-15.56v-15.56h15.56m0-15.56v15.56h-15.56v-15.56h15.56m0-15.573v15.573h-15.56V466.88h15.56" fill="#cf181f"/>
    <path d="M280.13 451.32v15.56h-15.56v-15.56h15.56m0-15.56v15.56h-15.56v-15.56h15.56m0-15.56v15.56h-15.56V420.2h15.56m0-15.56v15.56h-15.56v-15.56h15.56m0-15.573v15.573h-15.56v-15.573h15.56" fill="#df1a21"/>
    <path d="M280.13 373.507v15.56h-15.56v-15.56h15.56m0-15.56v15.56h-15.56v-15.56h15.56" fill="#ea6d15"/>
    <path d="M280.13 342.387v15.56h-15.56v-15.56h15.56m0-15.56v15.56h-15.56v-15.56h15.56" fill="#f2a60e"/>
    <path d="M280.13 311.253v15.574h-15.56v-15.574h15.56" fill="#fff430"/>
    <path d="M280.13 295.693v15.56h-15.56v-15.56h15.56" fill="#f5d806"/>
    <path d="M280.13 280.133v15.56h-15.56v-15.56h15.56" fill="#fff430"/>
    <path d="M280.13 264.573v15.56h-15.56v-15.56h15.56m0-15.56v15.56h-15.56v-15.56h15.56" fill="#f2a60e"/>
    <path d="M280.13 233.44v15.573h-15.56V233.44h15.56" fill="#f2a60e"/>
    <path d="M280.13 217.88v15.56h-15.56v-15.56h15.56" fill="#f5d806"/>
    <path d="M264.57 591.387v15.56h-15.56v-15.56h15.56m0-15.56v15.56h-15.56v-15.56h15.56m0-15.56v15.56h-15.56v-15.56h15.56m0-15.574v15.574h-15.56v-15.574h15.56m0-15.56v15.56h-15.56v-15.56h15.56m0-15.56v15.56h-15.56v-15.56h15.56" fill="#ac1318"/>
    <path d="M264.57 498.013v15.56h-15.56v-15.56h15.56m0-15.56v15.56h-15.56v-15.56h15.56" fill="#ba151b"/>
    <path d="M264.57 466.88v15.573h-15.56V466.88h15.56m0-15.56v15.56h-15.56v-15.56h15.56m0-15.56v15.56h-15.56v-15.56h15.56" fill="#cf181f"/>
    <path d="M264.57 420.2v15.56h-15.56V420.2h15.56m0-15.56v15.56h-15.56v-15.56h15.56m0-15.573v15.573h-15.56v-15.573h15.56m0-15.56v15.56h-15.56v-15.56h15.56" fill="#df1a21"/>
    <path d="M264.57 357.947v15.56h-15.56v-15.56h15.56m0-15.56v15.56h-15.56v-15.56h15.56m0-15.56v15.56h-15.56v-15.56h15.56" fill="#ea6d15"/>
    <path d="M264.57 311.253v15.574h-15.56v-15.574h15.56m0-15.56v15.56h-15.56v-15.56h15.56" fill="#f2a60e"/>
    <path d="M264.57 280.133v15.56h-15.56v-15.56h15.56" fill="#f5d806"/>
    <path d="M264.57 264.573v15.56h-15.56v-15.56h15.56m0-15.56v15.56h-15.56v-15.56h15.56" fill="#ea6d15"/>
    <path d="M264.57 233.44v15.573h-15.56V233.44h15.56" fill="#ea6d15"/>
    <path d="M249.01 498.013v15.56h-15.56v-15.56h15.56m0-15.56v15.56h-15.56v-15.56h15.56m0-15.573v15.573h-15.56V466.88h15.56" fill="#ac1318"/>
    <path d="M249.01 451.32v15.56h-15.56v-15.56h15.56m0-15.56v15.56h-15.56v-15.56h15.56" fill="#ba151b"/>
    <path d="M249.01 420.2v15.56h-15.56V420.2h15.56m0-15.56v15.56h-15.56v-15.56h15.56" fill="#cf181f"/>
    <path d="M249.01 389.067v15.573h-15.56v-15.573h15.56m0-15.56v15.56h-15.56v-15.56h15.56m0-15.56v15.56h-15.56v-15.56h15.56" fill="#df1a21"/>
    <path d="M249.01 311.253v15.574h-15.56v-15.574h15.56" fill="#ea6d15"/>
    <path d="M249.01 295.693v15.56h-15.56v-15.56h15.56" fill="#fff430"/>
    <path d="M249.01 280.133v15.56h-15.56v-15.56h15.56" fill="#ea6d15"/>
    <path d="M249.01 264.573v15.56h-15.56v-15.56h15.56" fill="#f5d806"/>
    <path d="M233.45 420.2v15.56h-15.573V420.2h15.574m-.001-15.56v15.56h-15.573v-15.56h15.574m-.001-15.573v15.573h-15.573v-15.573h15.574" fill="#cf181f"/>
    <path d="M233.45 373.507v15.56h-15.573v-15.56h15.574m-.001-15.56v15.56h-15.573v-15.56h15.574" fill="#df1a21"/>
</svg>
