<?xml version="1.0" encoding="utf-8"?>
<!-- Generator: Adobe Illustrator 26.2.1, SVG Export Plug-In . SVG Version: 6.00 Build 0)  -->
<svg version="1.1" id="a" xmlns="http://www.w3.org/2000/svg" xmlns:xlink="http://www.w3.org/1999/xlink" x="0px" y="0px"
	 viewBox="0 0 5760 299" style="enable-background:new 0 0 5760 299;" xml:space="preserve">
<style type="text/css">
	.st0{fill:#5E1F5A;}
	.st1{fill:#491448;}
	.st2{fill:#391039;}
	.st3{fill:#291945;}
</style>
<polygon class="st0" points="5760,209 5760,299 0,299 0,209 0.5,209 0.5,179 10,179 10,169 50,169 50,179 70,179 70,189 90,189 
	90,179 100,179 100,169 110,169 110,159 130,159 130,169 140,169 140,179 150,179 150,189 160,189 160,199 170,199 170,189 180,189 
	180,179 190,179 190,169 210,169 210,149 220,149 220,139.5 240,139.5 240,149 250,149 250,169 270,169 270,179 290,179 290,189 
	310,189 310,179 320,179 320,169 330,169 330,159 350,159 350,169 360,169 360,179 370,179 370,189 380,189 380,199 400,199 
	400,189 420,189 420,199 430,199 430,189 440,189 440,179 490,179 490,169 530,169 530,179 550,179 550,189 570,189 570,179 
	580,179 580,169 590,169 590,159 610,159 610,169 620,169 620,179 630,179 630,189 640,189 640,199 650,199 650,189 660,189 
	660,179 670,179 670,169 690,169 690,149 700,149 700,139.5 720,139.5 720,149 730,149 730,169 750,169 750,179 770,179 770,189 
	790,189 790,179 800,179 800,169 810,169 810,159 830,159 830,169 840,169 840,179 850,179 850,189 860,189 860,199 880,199 
	880,189 900,189 900,199 910,199 910,189 920,189 920,179 970,179 970,169 1010,169 1010,179 1030,179 1030,189 1050,189 1050,179 
	1060,179 1060,169 1070,169 1070,159 1090,159 1090,169 1100,169 1100,179 1110,179 1110,189 1120,189 1120,199 1130,199 1130,189 
	1140,189 1140,179 1150,179 1150,169 1170,169 1170,149 1180,149 1180,139.5 1200,139.5 1200,149 1210,149 1210,169 1230,169 
	1230,179 1250,179 1250,189 1270,189 1270,179 1280,179 1280,169 1290,169 1290,159 1310,159 1310,169 1320,169 1320,179 1330,179 
	1330,189 1340,189 1340,199 1360,199 1360,189 1380,189 1380,199 1390,199 1390,189 1400,189 1400,179 1450,179 1450,169 1490,169 
	1490,179 1510,179 1510,189 1530,189 1530,179 1540,179 1540,169 1550,169 1550,159 1570,159 1570,169 1580,169 1580,179 1590,179 
	1590,189 1600,189 1600,199 1610,199 1610,189 1620,189 1620,179 1630,179 1630,169 1650,169 1650,149 1660,149 1660,139.5 
	1680,139.5 1680,149 1690,149 1690,169 1710,169 1710,179 1730,179 1730,189 1750,189 1750,179 1760,179 1760,169 1770,169 
	1770,159 1790,159 1790,169 1800,169 1800,179 1810,179 1810,189 1820,189 1820,199 1840,199 1840,189 1860,189 1860,199 1870,199 
	1870,189 1880,189 1880,179 1930,179 1930,169 1970,169 1970,179 1990,179 1990,189 2010,189 2010,179 2020,179 2020,169 2030,169 
	2030,159 2050,159 2050,169 2060,169 2060,179 2070,179 2070,189 2080,189 2080,199 2090,199 2090,189 2100,189 2100,179 2110,179 
	2110,169 2130,169 2130,149 2140,149 2140,139.5 2160,139.5 2160,149 2170,149 2170,169 2190,169 2190,179 2210,179 2210,189 
	2230,189 2230,179 2240,179 2240,169 2250,169 2250,159 2270,159 2270,169 2280,169 2280,179 2290,179 2290,189 2300,189 2300,199 
	2320,199 2320,189 2340,189 2340,199 2350,199 2350,189 2360,189 2360,179 2410,179 2410,169 2450,169 2450,179 2470,179 2470,189 
	2490,189 2490,179 2500,179 2500,169 2510,169 2510,159 2530,159 2530,169 2540,169 2540,179 2550,179 2550,189 2560,189 2560,199 
	2570,199 2570,189 2580,189 2580,179 2590,179 2590,169 2610,169 2610,149 2620,149 2620,139.5 2640,139.5 2640,149 2650,149 
	2650,169 2670,169 2670,179 2690,179 2690,189 2710,189 2710,179 2720,179 2720,169 2730,169 2730,159 2750,159 2750,169 2760,169 
	2760,179 2770,179 2770,189 2780,189 2780,199 2800,199 2800,189 2820,189 2820,199 2830,199 2830,189 2840,189 2840,179 2890,179 
	2890,169 2930,169 2930,179 2950,179 2950,189 2970,189 2970,179 2980,179 2980,169 2990,169 2990,159 3010,159 3010,169 3020,169 
	3020,179 3030,179 3030,189 3040,189 3040,199 3050,199 3050,189 3060,189 3060,179 3070,179 3070,169 3090,169 3090,149 3100,149 
	3100,139.5 3120,139.5 3120,149 3130,149 3130,169 3150,169 3150,179 3170,179 3170,189 3190,189 3190,179 3200,179 3200,169 
	3210,169 3210,159 3230,159 3230,169 3240,169 3240,179 3250,179 3250,189 3260,189 3260,199 3280,199 3280,189 3300,189 3300,199 
	3310,199 3310,189 3320,189 3320,179 3370,179 3370,169 3410,169 3410,179 3430,179 3430,189 3450,189 3450,179 3460,179 3460,169 
	3470,169 3470,159 3490,159 3490,169 3500,169 3500,179 3510,179 3510,189 3520,189 3520,199 3530,199 3530,189 3540,189 3540,179 
	3550,179 3550,169 3570,169 3570,149 3580,149 3580,139.5 3600,139.5 3600,149 3610,149 3610,169 3630,169 3630,179 3650,179 
	3650,189 3670,189 3670,179 3680,179 3680,169 3690,169 3690,159 3710,159 3710,169 3720,169 3720,179 3730,179 3730,189 3740,189 
	3740,199 3760,199 3760,189 3780,189 3780,199 3790,199 3790,189 3800,189 3800,179 3850,179 3850,169 3890,169 3890,179 3910,179 
	3910,189 3930,189 3930,179 3940,179 3940,169 3950,169 3950,159 3970,159 3970,169 3980,169 3980,179 3990,179 3990,189 4000,189 
	4000,199 4010,199 4010,189 4020,189 4020,179 4030,179 4030,169 4050,169 4050,149 4060,149 4060,139.5 4080,139.5 4080,149 
	4090,149 4090,169 4110,169 4110,179 4130,179 4130,189 4150,189 4150,179 4160,179 4160,169 4170,169 4170,159 4190,159 4190,169 
	4200,169 4200,179 4210,179 4210,189 4220,189 4220,199 4240,199 4240,189 4260,189 4260,199 4270,199 4270,189 4280,189 4280,179 
	4330,179 4330,169 4370,169 4370,179 4390,179 4390,189 4410,189 4410,179 4420,179 4420,169 4430,169 4430,159 4450,159 4450,169 
	4460,169 4460,179 4470,179 4470,189 4480,189 4480,199 4490,199 4490,189 4500,189 4500,179 4510,179 4510,169 4530,169 4530,149 
	4540,149 4540,139.5 4560,139.5 4560,149 4570,149 4570,169 4590,169 4590,179 4610,179 4610,189 4630,189 4630,179 4640,179 
	4640,169 4650,169 4650,159 4670,159 4670,169 4680,169 4680,179 4690,179 4690,189 4700,189 4700,199 4720,199 4720,189 4740,189 
	4740,199 4750,199 4750,189 4760,189 4760,179 4810,179 4810,169 4850,169 4850,179 4870,179 4870,189 4890,189 4890,179 4900,179 
	4900,169 4910,169 4910,159 4930,159 4930,169 4940,169 4940,179 4950,179 4950,189 4960,189 4960,199 4970,199 4970,189 4980,189 
	4980,179 4990,179 4990,169 5010,169 5010,149 5020,149 5020,139.5 5040,139.5 5040,149 5050,149 5050,169 5070,169 5070,179 
	5090,179 5090,189 5110,189 5110,179 5120,179 5120,169 5130,169 5130,159 5150,159 5150,169 5160,169 5160,179 5170,179 5170,189 
	5180,189 5180,199 5200,199 5200,189 5220,189 5220,199 5230,199 5230,189 5240,189 5240,179 5290,179 5290,169 5330,169 5330,179 
	5350,179 5350,189 5370,189 5370,179 5380,179 5380,169 5390,169 5390,159 5410,159 5410,169 5420,169 5420,179 5430,179 5430,189 
	5440,189 5440,199 5450,199 5450,189 5460,189 5460,179 5470,179 5470,169 5490,169 5490,149 5500,149 5500,139.5 5520,139.5 
	5520,149 5530,149 5530,169 5550,169 5550,179 5570,179 5570,189 5590,189 5590,179 5600,179 5600,169 5610,169 5610,159 5630,159 
	5630,169 5640,169 5640,179 5650,179 5650,189 5660,189 5660,199 5680,199 5680,189 5700,189 5700,199 5710,199 5710,189 5720,189 
	5720,179 5759.5,179 5759.5,209 "/>
<polygon class="st1" points="5760,120 5760,140 5759.5,140 5759.5,179 5720,179 5720,189 5710,189 5710,199 5700,199 5700,189 
	5680,189 5680,199 5660,199 5660,189 5650,189 5650,179 5640,179 5640,169 5630,169 5630,159 5610,159 5610,169 5600,169 5600,179 
	5590,179 5590,189 5570,189 5570,179 5550,179 5550,169 5530,169 5530,149 5520,149 5520,140 5500,140 5500,149 5490,149 5490,169 
	5470,169 5470,179 5460,179 5460,189 5450,189 5450,199 5440,199 5440,189 5430,189 5430,179 5420,179 5420,169 5410,169 5410,159 
	5390,159 5390,169 5380,169 5380,179 5370,179 5370,189 5350,189 5350,179 5330,179 5330,169 5290,169 5290,179 5240,179 5240,189 
	5230,189 5230,199 5220,199 5220,189 5200,189 5200,199 5180,199 5180,189 5170,189 5170,179 5160,179 5160,169 5150,169 5150,159 
	5130,159 5130,169 5120,169 5120,179 5110,179 5110,189 5090,189 5090,179 5070,179 5070,169 5050,169 5050,149 5040,149 5040,140 
	5020,140 5020,149 5010,149 5010,169 4990,169 4990,179 4980,179 4980,189 4970,189 4970,199 4960,199 4960,189 4950,189 4950,179 
	4940,179 4940,169 4930,169 4930,159 4910,159 4910,169 4900,169 4900,179 4890,179 4890,189 4870,189 4870,179 4850,179 4850,169 
	4810,169 4810,179 4760,179 4760,189 4750,189 4750,199 4740,199 4740,189 4720,189 4720,199 4700,199 4700,189 4690,189 4690,179 
	4680,179 4680,169 4670,169 4670,159 4650,159 4650,169 4640,169 4640,179 4630,179 4630,189 4610,189 4610,179 4590,179 4590,169 
	4570,169 4570,149 4560,149 4560,140 4540,140 4540,149 4530,149 4530,169 4510,169 4510,179 4500,179 4500,189 4490,189 4490,199 
	4480,199 4480,189 4470,189 4470,179 4460,179 4460,169 4450,169 4450,159 4430,159 4430,169 4420,169 4420,179 4410,179 4410,189 
	4390,189 4390,179 4370,179 4370,169 4330,169 4330,179 4280,179 4280,189 4270,189 4270,199 4260,199 4260,189 4240,189 4240,199 
	4220,199 4220,189 4210,189 4210,179 4200,179 4200,169 4190,169 4190,159 4170,159 4170,169 4160,169 4160,179 4150,179 4150,189 
	4130,189 4130,179 4110,179 4110,169 4090,169 4090,149 4080,149 4080,140 4060,140 4060,149 4050,149 4050,169 4030,169 4030,179 
	4020,179 4020,189 4010,189 4010,199 4000,199 4000,189 3990,189 3990,179 3980,179 3980,169 3970,169 3970,159 3950,159 3950,169 
	3940,169 3940,179 3930,179 3930,189 3910,189 3910,179 3890,179 3890,169 3850,169 3850,179 3800,179 3800,189 3790,189 3790,199 
	3780,199 3780,189 3760,189 3760,199 3740,199 3740,189 3730,189 3730,179 3720,179 3720,169 3710,169 3710,159 3690,159 3690,169 
	3680,169 3680,179 3670,179 3670,189 3650,189 3650,179 3630,179 3630,169 3610,169 3610,149 3600,149 3600,140 3580,140 3580,149 
	3570,149 3570,169 3550,169 3550,179 3540,179 3540,189 3530,189 3530,199 3520,199 3520,189 3510,189 3510,179 3500,179 3500,169 
	3490,169 3490,159 3470,159 3470,169 3460,169 3460,179 3450,179 3450,189 3430,189 3430,179 3410,179 3410,169 3370,169 3370,179 
	3320,179 3320,189 3310,189 3310,199 3300,199 3300,189 3280,189 3280,199 3260,199 3260,189 3250,189 3250,179 3240,179 3240,169 
	3230,169 3230,159 3210,159 3210,169 3200,169 3200,179 3190,179 3190,189 3170,189 3170,179 3150,179 3150,169 3130,169 3130,149 
	3120,149 3120,140 3100,140 3100,149 3090,149 3090,169 3070,169 3070,179 3060,179 3060,189 3050,189 3050,199 3040,199 3040,189 
	3030,189 3030,179 3020,179 3020,169 3010,169 3010,159 2990,159 2990,169 2980,169 2980,179 2970,179 2970,189 2950,189 2950,179 
	2930,179 2930,169 2890,169 2890,179 2840,179 2840,189 2830,189 2830,199 2820,199 2820,189 2800,189 2800,199 2780,199 2780,189 
	2770,189 2770,179 2760,179 2760,169 2750,169 2750,159 2730,159 2730,169 2720,169 2720,179 2710,179 2710,189 2690,189 2690,179 
	2670,179 2670,169 2650,169 2650,149 2640,149 2640,140 2620,140 2620,149 2610,149 2610,169 2590,169 2590,179 2580,179 2580,189 
	2570,189 2570,199 2560,199 2560,189 2550,189 2550,179 2540,179 2540,169 2530,169 2530,159 2510,159 2510,169 2500,169 2500,179 
	2490,179 2490,189 2470,189 2470,179 2450,179 2450,169 2410,169 2410,179 2360,179 2360,189 2350,189 2350,199 2340,199 2340,189 
	2320,189 2320,199 2300,199 2300,189 2290,189 2290,179 2280,179 2280,169 2270,169 2270,159 2250,159 2250,169 2240,169 2240,179 
	2230,179 2230,189 2210,189 2210,179 2190,179 2190,169 2170,169 2170,149 2160,149 2160,140 2140,140 2140,149 2130,149 2130,169 
	2110,169 2110,179 2100,179 2100,189 2090,189 2090,199 2080,199 2080,189 2070,189 2070,179 2060,179 2060,169 2050,169 2050,159 
	2030,159 2030,169 2020,169 2020,179 2010,179 2010,189 1990,189 1990,179 1970,179 1970,169 1930,169 1930,179 1880,179 1880,189 
	1870,189 1870,199 1860,199 1860,189 1840,189 1840,199 1820,199 1820,189 1810,189 1810,179 1800,179 1800,169 1790,169 1790,159 
	1770,159 1770,169 1760,169 1760,179 1750,179 1750,189 1730,189 1730,179 1710,179 1710,169 1690,169 1690,149 1680,149 1680,140 
	1660,140 1660,149 1650,149 1650,169 1630,169 1630,179 1620,179 1620,189 1610,189 1610,199 1600,199 1600,189 1590,189 1590,179 
	1580,179 1580,169 1570,169 1570,159 1550,159 1550,169 1540,169 1540,179 1530,179 1530,189 1510,189 1510,179 1490,179 1490,169 
	1450,169 1450,179 1400,179 1400,189 1390,189 1390,199 1380,199 1380,189 1360,189 1360,199 1340,199 1340,189 1330,189 1330,179 
	1320,179 1320,169 1310,169 1310,159 1290,159 1290,169 1280,169 1280,179 1270,179 1270,189 1250,189 1250,179 1230,179 1230,169 
	1210,169 1210,149 1200,149 1200,140 1180,140 1180,149 1170,149 1170,169 1150,169 1150,179 1140,179 1140,189 1130,189 1130,199 
	1120,199 1120,189 1110,189 1110,179 1100,179 1100,169 1090,169 1090,159 1070,159 1070,169 1060,169 1060,179 1050,179 1050,189 
	1030,189 1030,179 1010,179 1010,169 970,169 970,179 920,179 920,189 910,189 910,199 900,199 900,189 880,189 880,199 860,199 
	860,189 850,189 850,179 840,179 840,169 830,169 830,159 810,159 810,169 800,169 800,179 790,179 790,189 770,189 770,179 
	750,179 750,169 730,169 730,149 720,149 720,140 700,140 700,149 690,149 690,169 670,169 670,179 660,179 660,189 650,189 
	650,199 640,199 640,189 630,189 630,179 620,179 620,169 610,169 610,159 590,159 590,169 580,169 580,179 570,179 570,189 
	550,189 550,179 530,179 530,169 490,169 490,179 440,179 440,189 430,189 430,199 420,199 420,189 400,189 400,199 380,199 
	380,189 370,189 370,179 360,179 360,169 350,169 350,159 330,159 330,169 320,169 320,179 310,179 310,189 290,189 290,179 
	270,179 270,169 250,169 250,149 240,149 240,140 220,140 220,149 210,149 210,169 190,169 190,179 180,179 180,189 170,189 
	170,199 160,199 160,189 150,189 150,179 140,179 140,169 130,169 130,159 110,159 110,169 100,169 100,179 90,179 90,189 70,189 
	70,179 50,179 50,169 10,169 10,179 0.5,179 0.5,140 0,140 0,120 10,120 10,110 30,110 30,100 70,100 70,110 120,110 120,120 
	130,120 130,130 140,130 140,120 160,120 160,130 180,130 180,120 190,120 190,110 200,110 200,100 210,100 210,90 230,90 230,100 
	240,100 240,110 250,110 250,120 270,120 270,110 290,110 290,100 310,100 310,80 320,80 320,70 340,70 340,80 350,80 350,100 
	370,100 370,110 380,110 380,120 390,120 390,130 400,130 400,120 410,120 410,110 420,110 420,100 430,100 430,90 450,90 450,100 
	460,100 460,110 470,110 470,120 490,120 490,110 510,110 510,100 550,100 550,110 600,110 600,120 610,120 610,130 620,130 
	620,120 640,120 640,130 660,130 660,120 670,120 670,110 680,110 680,100 690,100 690,90 710,90 710,100 720,100 720,110 730,110 
	730,120 750,120 750,110 770,110 770,100 790,100 790,80 800,80 800,70 820,70 820,80 830,80 830,100 850,100 850,110 860,110 
	860,120 870,120 870,130 880,130 880,120 890,120 890,110 900,110 900,100 910,100 910,90 930,90 930,100 940,100 940,110 950,110 
	950,120 970,120 970,110 990,110 990,100 1030,100 1030,110 1080,110 1080,120 1090,120 1090,130 1100,130 1100,120 1120,120 
	1120,130 1140,130 1140,120 1150,120 1150,110 1160,110 1160,100 1170,100 1170,90 1190,90 1190,100 1200,100 1200,110 1210,110 
	1210,120 1230,120 1230,110 1250,110 1250,100 1270,100 1270,80 1280,80 1280,70 1300,70 1300,80 1310,80 1310,100 1330,100 
	1330,110 1340,110 1340,120 1350,120 1350,130 1360,130 1360,120 1370,120 1370,110 1380,110 1380,100 1390,100 1390,90 1410,90 
	1410,100 1420,100 1420,110 1430,110 1430,120 1450,120 1450,110 1470,110 1470,100 1510,100 1510,110 1560,110 1560,120 1570,120 
	1570,130 1580,130 1580,120 1600,120 1600,130 1620,130 1620,120 1630,120 1630,110 1640,110 1640,100 1650,100 1650,90 1670,90 
	1670,100 1680,100 1680,110 1690,110 1690,120 1710,120 1710,110 1730,110 1730,100 1750,100 1750,80 1760,80 1760,70 1780,70 
	1780,80 1790,80 1790,100 1810,100 1810,110 1820,110 1820,120 1830,120 1830,130 1840,130 1840,120 1850,120 1850,110 1860,110 
	1860,100 1870,100 1870,90 1890,90 1890,100 1900,100 1900,110 1910,110 1910,120 1930,120 1930,110 1950,110 1950,100 1990,100 
	1990,110 2040,110 2040,120 2050,120 2050,130 2060,130 2060,120 2080,120 2080,130 2100,130 2100,120 2110,120 2110,110 2120,110 
	2120,100 2130,100 2130,90 2150,90 2150,100 2160,100 2160,110 2170,110 2170,120 2190,120 2190,110 2210,110 2210,100 2230,100 
	2230,80 2240,80 2240,70 2260,70 2260,80 2270,80 2270,100 2290,100 2290,110 2300,110 2300,120 2310,120 2310,130 2320,130 
	2320,120 2330,120 2330,110 2340,110 2340,100 2350,100 2350,90 2370,90 2370,100 2380,100 2380,110 2390,110 2390,120 2410,120 
	2410,110 2430,110 2430,100 2470,100 2470,110 2520,110 2520,120 2530,120 2530,130 2540,130 2540,120 2560,120 2560,130 2580,130 
	2580,120 2590,120 2590,110 2600,110 2600,100 2610,100 2610,90 2630,90 2630,100 2640,100 2640,110 2650,110 2650,120 2670,120 
	2670,110 2690,110 2690,100 2710,100 2710,80 2720,80 2720,70 2740,70 2740,80 2750,80 2750,100 2770,100 2770,110 2780,110 
	2780,120 2790,120 2790,130 2800,130 2800,120 2810,120 2810,110 2820,110 2820,100 2830,100 2830,90 2850,90 2850,100 2860,100 
	2860,110 2870,110 2870,120 2890,120 2890,110 2910,110 2910,100 2950,100 2950,110 3000,110 3000,120 3010,120 3010,130 3020,130 
	3020,120 3040,120 3040,130 3060,130 3060,120 3070,120 3070,110 3080,110 3080,100 3090,100 3090,90 3110,90 3110,100 3120,100 
	3120,110 3130,110 3130,120 3150,120 3150,110 3170,110 3170,100 3190,100 3190,80 3200,80 3200,70 3220,70 3220,80 3230,80 
	3230,100 3250,100 3250,110 3260,110 3260,120 3270,120 3270,130 3280,130 3280,120 3290,120 3290,110 3300,110 3300,100 3310,100 
	3310,90 3330,90 3330,100 3340,100 3340,110 3350,110 3350,120 3370,120 3370,110 3390,110 3390,100 3430,100 3430,110 3480,110 
	3480,120 3490,120 3490,130 3500,130 3500,120 3520,120 3520,130 3540,130 3540,120 3550,120 3550,110 3560,110 3560,100 3570,100 
	3570,90 3590,90 3590,100 3600,100 3600,110 3610,110 3610,120 3630,120 3630,110 3650,110 3650,100 3670,100 3670,80 3680,80 
	3680,70 3700,70 3700,80 3710,80 3710,100 3730,100 3730,110 3740,110 3740,120 3750,120 3750,130 3760,130 3760,120 3770,120 
	3770,110 3780,110 3780,100 3790,100 3790,90 3810,90 3810,100 3820,100 3820,110 3830,110 3830,120 3850,120 3850,110 3870,110 
	3870,100 3910,100 3910,110 3960,110 3960,120 3970,120 3970,130 3980,130 3980,120 4000,120 4000,130 4020,130 4020,120 4030,120 
	4030,110 4040,110 4040,100 4050,100 4050,90 4070,90 4070,100 4080,100 4080,110 4090,110 4090,120 4110,120 4110,110 4130,110 
	4130,100 4150,100 4150,80 4160,80 4160,70 4180,70 4180,80 4190,80 4190,100 4210,100 4210,110 4220,110 4220,120 4230,120 
	4230,130 4240,130 4240,120 4250,120 4250,110 4260,110 4260,100 4270,100 4270,90 4290,90 4290,100 4300,100 4300,110 4310,110 
	4310,120 4330,120 4330,110 4350,110 4350,100 4390,100 4390,110 4440,110 4440,120 4450,120 4450,130 4460,130 4460,120 4480,120 
	4480,130 4500,130 4500,120 4510,120 4510,110 4520,110 4520,100 4530,100 4530,90 4550,90 4550,100 4560,100 4560,110 4570,110 
	4570,120 4590,120 4590,110 4610,110 4610,100 4630,100 4630,80 4640,80 4640,70 4660,70 4660,80 4670,80 4670,100 4690,100 
	4690,110 4700,110 4700,120 4710,120 4710,130 4720,130 4720,120 4730,120 4730,110 4740,110 4740,100 4750,100 4750,90 4770,90 
	4770,100 4780,100 4780,110 4790,110 4790,120 4810,120 4810,110 4830,110 4830,100 4870,100 4870,110 4920,110 4920,120 4930,120 
	4930,130 4940,130 4940,120 4960,120 4960,130 4980,130 4980,120 4990,120 4990,110 5000,110 5000,100 5010,100 5010,90 5030,90 
	5030,100 5040,100 5040,110 5050,110 5050,120 5070,120 5070,110 5090,110 5090,100 5110,100 5110,80 5120,80 5120,70 5140,70 
	5140,80 5150,80 5150,100 5170,100 5170,110 5180,110 5180,120 5190,120 5190,130 5200,130 5200,120 5210,120 5210,110 5220,110 
	5220,100 5230,100 5230,90 5250,90 5250,100 5260,100 5260,110 5270,110 5270,120 5290,120 5290,110 5310,110 5310,100 5350,100 
	5350,110 5400,110 5400,120 5410,120 5410,130 5420,130 5420,120 5440,120 5440,130 5460,130 5460,120 5470,120 5470,110 5480,110 
	5480,100 5490,100 5490,90 5510,90 5510,100 5520,100 5520,110 5530,110 5530,120 5550,120 5550,110 5570,110 5570,100 5590,100 
	5590,80 5600,80 5600,70 5620,70 5620,80 5630,80 5630,100 5650,100 5650,110 5660,110 5660,120 5670,120 5670,130 5680,130 
	5680,120 5690,120 5690,110 5700,110 5700,100 5710,100 5710,90 5730,90 5730,100 5740,100 5740,110 5750,110 5750,120 "/>
<polygon class="st2" points="5760,50 5760,120 5750,120 5750,110 5740,110 5740,100 5730,100 5730,90 5710,90 5710,100 5700,100 
	5700,110 5690,110 5690,120 5680,120 5680,130 5670,130 5670,120 5660,120 5660,110 5650,110 5650,100 5630,100 5630,80 5620,80 
	5620,70 5600,70 5600,80 5590,80 5590,100 5570,100 5570,110 5550,110 5550,120 5530,120 5530,110 5520,110 5520,100 5510,100 
	5510,90 5490,90 5490,100 5480,100 5480,110 5470,110 5470,120 5460,120 5460,130 5440,130 5440,120 5420,120 5420,130 5410,130 
	5410,120 5400,120 5400,110 5350,110 5350,100 5310,100 5310,110 5290,110 5290,120 5270,120 5270,110 5260,110 5260,100 5250,100 
	5250,90 5230,90 5230,100 5220,100 5220,110 5210,110 5210,120 5200,120 5200,130 5190,130 5190,120 5180,120 5180,110 5170,110 
	5170,100 5150,100 5150,80 5140,80 5140,70 5120,70 5120,80 5110,80 5110,100 5090,100 5090,110 5070,110 5070,120 5050,120 
	5050,110 5040,110 5040,100 5030,100 5030,90 5010,90 5010,100 5000,100 5000,110 4990,110 4990,120 4980,120 4980,130 4960,130 
	4960,120 4940,120 4940,130 4930,130 4930,120 4920,120 4920,110 4870,110 4870,100 4830,100 4830,110 4810,110 4810,120 4790,120 
	4790,110 4780,110 4780,100 4770,100 4770,90 4750,90 4750,100 4740,100 4740,110 4730,110 4730,120 4720,120 4720,130 4710,130 
	4710,120 4700,120 4700,110 4690,110 4690,100 4670,100 4670,80 4660,80 4660,70 4640,70 4640,80 4630,80 4630,100 4610,100 
	4610,110 4590,110 4590,120 4570,120 4570,110 4560,110 4560,100 4550,100 4550,90 4530,90 4530,100 4520,100 4520,110 4510,110 
	4510,120 4500,120 4500,130 4480,130 4480,120 4460,120 4460,130 4450,130 4450,120 4440,120 4440,110 4390,110 4390,100 4350,100 
	4350,110 4330,110 4330,120 4310,120 4310,110 4300,110 4300,100 4290,100 4290,90 4270,90 4270,100 4260,100 4260,110 4250,110 
	4250,120 4240,120 4240,130 4230,130 4230,120 4220,120 4220,110 4210,110 4210,100 4190,100 4190,80 4180,80 4180,70 4160,70 
	4160,80 4150,80 4150,100 4130,100 4130,110 4110,110 4110,120 4090,120 4090,110 4080,110 4080,100 4070,100 4070,90 4050,90 
	4050,100 4040,100 4040,110 4030,110 4030,120 4020,120 4020,130 4000,130 4000,120 3980,120 3980,130 3970,130 3970,120 3960,120 
	3960,110 3910,110 3910,100 3870,100 3870,110 3850,110 3850,120 3830,120 3830,110 3820,110 3820,100 3810,100 3810,90 3790,90 
	3790,100 3780,100 3780,110 3770,110 3770,120 3760,120 3760,130 3750,130 3750,120 3740,120 3740,110 3730,110 3730,100 3710,100 
	3710,80 3700,80 3700,70 3680,70 3680,80 3670,80 3670,100 3650,100 3650,110 3630,110 3630,120 3610,120 3610,110 3600,110 
	3600,100 3590,100 3590,90 3570,90 3570,100 3560,100 3560,110 3550,110 3550,120 3540,120 3540,130 3520,130 3520,120 3500,120 
	3500,130 3490,130 3490,120 3480,120 3480,110 3430,110 3430,100 3390,100 3390,110 3370,110 3370,120 3350,120 3350,110 3340,110 
	3340,100 3330,100 3330,90 3310,90 3310,100 3300,100 3300,110 3290,110 3290,120 3280,120 3280,130 3270,130 3270,120 3260,120 
	3260,110 3250,110 3250,100 3230,100 3230,80 3220,80 3220,70 3200,70 3200,80 3190,80 3190,100 3170,100 3170,110 3150,110 
	3150,120 3130,120 3130,110 3120,110 3120,100 3110,100 3110,90 3090,90 3090,100 3080,100 3080,110 3070,110 3070,120 3060,120 
	3060,130 3040,130 3040,120 3020,120 3020,130 3010,130 3010,120 3000,120 3000,110 2950,110 2950,100 2910,100 2910,110 2890,110 
	2890,120 2870,120 2870,110 2860,110 2860,100 2850,100 2850,90 2830,90 2830,100 2820,100 2820,110 2810,110 2810,120 2800,120 
	2800,130 2790,130 2790,120 2780,120 2780,110 2770,110 2770,100 2750,100 2750,80 2740,80 2740,70 2720,70 2720,80 2710,80 
	2710,100 2690,100 2690,110 2670,110 2670,120 2650,120 2650,110 2640,110 2640,100 2630,100 2630,90 2610,90 2610,100 2600,100 
	2600,110 2590,110 2590,120 2580,120 2580,130 2560,130 2560,120 2540,120 2540,130 2530,130 2530,120 2520,120 2520,110 2470,110 
	2470,100 2430,100 2430,110 2410,110 2410,120 2390,120 2390,110 2380,110 2380,100 2370,100 2370,90 2350,90 2350,100 2340,100 
	2340,110 2330,110 2330,120 2320,120 2320,130 2310,130 2310,120 2300,120 2300,110 2290,110 2290,100 2270,100 2270,80 2260,80 
	2260,70 2240,70 2240,80 2230,80 2230,100 2210,100 2210,110 2190,110 2190,120 2170,120 2170,110 2160,110 2160,100 2150,100 
	2150,90 2130,90 2130,100 2120,100 2120,110 2110,110 2110,120 2100,120 2100,130 2080,130 2080,120 2060,120 2060,130 2050,130 
	2050,120 2040,120 2040,110 1990,110 1990,100 1950,100 1950,110 1930,110 1930,120 1910,120 1910,110 1900,110 1900,100 1890,100 
	1890,90 1870,90 1870,100 1860,100 1860,110 1850,110 1850,120 1840,120 1840,130 1830,130 1830,120 1820,120 1820,110 1810,110 
	1810,100 1790,100 1790,80 1780,80 1780,70 1760,70 1760,80 1750,80 1750,100 1730,100 1730,110 1710,110 1710,120 1690,120 
	1690,110 1680,110 1680,100 1670,100 1670,90 1650,90 1650,100 1640,100 1640,110 1630,110 1630,120 1620,120 1620,130 1600,130 
	1600,120 1580,120 1580,130 1570,130 1570,120 1560,120 1560,110 1510,110 1510,100 1470,100 1470,110 1450,110 1450,120 1430,120 
	1430,110 1420,110 1420,100 1410,100 1410,90 1390,90 1390,100 1380,100 1380,110 1370,110 1370,120 1360,120 1360,130 1350,130 
	1350,120 1340,120 1340,110 1330,110 1330,100 1310,100 1310,80 1300,80 1300,70 1280,70 1280,80 1270,80 1270,100 1250,100 
	1250,110 1230,110 1230,120 1210,120 1210,110 1200,110 1200,100 1190,100 1190,90 1170,90 1170,100 1160,100 1160,110 1150,110 
	1150,120 1140,120 1140,130 1120,130 1120,120 1100,120 1100,130 1090,130 1090,120 1080,120 1080,110 1030,110 1030,100 990,100 
	990,110 970,110 970,120 950,120 950,110 940,110 940,100 930,100 930,90 910,90 910,100 900,100 900,110 890,110 890,120 880,120 
	880,130 870,130 870,120 860,120 860,110 850,110 850,100 830,100 830,80 820,80 820,70 800,70 800,80 790,80 790,100 770,100 
	770,110 750,110 750,120 730,120 730,110 720,110 720,100 710,100 710,90 690,90 690,100 680,100 680,110 670,110 670,120 660,120 
	660,130 640,130 640,120 620,120 620,130 610,130 610,120 600,120 600,110 550,110 550,100 510,100 510,110 490,110 490,120 
	470,120 470,110 460,110 460,100 450,100 450,90 430,90 430,100 420,100 420,110 410,110 410,120 400,120 400,130 390,130 390,120 
	380,120 380,110 370,110 370,100 350,100 350,80 340,80 340,70 320,70 320,80 310,80 310,100 290,100 290,110 270,110 270,120 
	250,120 250,110 240,110 240,100 230,100 230,90 210,90 210,100 200,100 200,110 190,110 190,120 180,120 180,130 160,130 160,120 
	140,120 140,130 130,130 130,120 120,120 120,110 70,110 70,100 30,100 30,110 10,110 10,120 0,120 0,50 10,50 10,40 20,40 20,30 
	30,30 30,20 50,20 50,30 60,30 60,40 70,40 70,50 80,50 80,60 90,60 90,50 100,50 100,40 110,40 110,30 130,30 130,10 140,10 140,0 
	160,0 160,10 170,10 170,30 190,30 190,40 210,40 210,50 230,50 230,40 240,40 240,30 250,30 250,20 270,20 270,30 280,30 280,40 
	290,40 290,50 300,50 300,60 320,60 320,50 340,50 340,60 350,60 350,50 360,50 360,40 410,40 410,30 450,30 450,40 470,40 470,50 
	490,50 490,40 500,40 500,30 510,30 510,20 530,20 530,30 540,30 540,40 550,40 550,50 560,50 560,60 570,60 570,50 580,50 580,40 
	590,40 590,30 610,30 610,10 620,10 620,0 640,0 640,10 650,10 650,30 670,30 670,40 690,40 690,50 710,50 710,40 720,40 720,30 
	730,30 730,20 750,20 750,30 760,30 760,40 770,40 770,50 780,50 780,60 800,60 800,50 820,50 820,60 830,60 830,50 840,50 840,40 
	890,40 890,30 930,30 930,40 950,40 950,50 970,50 970,40 980,40 980,30 990,30 990,20 1010,20 1010,30 1020,30 1020,40 1030,40 
	1030,50 1040,50 1040,60 1050,60 1050,50 1060,50 1060,40 1070,40 1070,30 1090,30 1090,10 1100,10 1100,0 1120,0 1120,10 1130,10 
	1130,30 1150,30 1150,40 1170,40 1170,50 1190,50 1190,40 1200,40 1200,30 1210,30 1210,20 1230,20 1230,30 1240,30 1240,40 
	1250,40 1250,50 1260,50 1260,60 1280,60 1280,50 1300,50 1300,60 1310,60 1310,50 1320,50 1320,40 1370,40 1370,30 1410,30 
	1410,40 1430,40 1430,50 1450,50 1450,40 1460,40 1460,30 1470,30 1470,20 1490,20 1490,30 1500,30 1500,40 1510,40 1510,50 
	1520,50 1520,60 1530,60 1530,50 1540,50 1540,40 1550,40 1550,30 1570,30 1570,10 1580,10 1580,0 1600,0 1600,10 1610,10 1610,30 
	1630,30 1630,40 1650,40 1650,50 1670,50 1670,40 1680,40 1680,30 1690,30 1690,20 1710,20 1710,30 1720,30 1720,40 1730,40 
	1730,50 1740,50 1740,60 1760,60 1760,50 1780,50 1780,60 1790,60 1790,50 1800,50 1800,40 1850,40 1850,30 1890,30 1890,40 
	1910,40 1910,50 1930,50 1930,40 1940,40 1940,30 1950,30 1950,20 1970,20 1970,30 1980,30 1980,40 1990,40 1990,50 2000,50 
	2000,60 2010,60 2010,50 2020,50 2020,40 2030,40 2030,30 2050,30 2050,10 2060,10 2060,0 2080,0 2080,10 2090,10 2090,30 2110,30 
	2110,40 2130,40 2130,50 2150,50 2150,40 2160,40 2160,30 2170,30 2170,20 2190,20 2190,30 2200,30 2200,40 2210,40 2210,50 
	2220,50 2220,60 2240,60 2240,50 2260,50 2260,60 2270,60 2270,50 2280,50 2280,40 2330,40 2330,30 2370,30 2370,40 2390,40 
	2390,50 2410,50 2410,40 2420,40 2420,30 2430,30 2430,20 2450,20 2450,30 2460,30 2460,40 2470,40 2470,50 2480,50 2480,60 
	2490,60 2490,50 2500,50 2500,40 2510,40 2510,30 2530,30 2530,10 2540,10 2540,0 2560,0 2560,10 2570,10 2570,30 2590,30 2590,40 
	2610,40 2610,50 2630,50 2630,40 2640,40 2640,30 2650,30 2650,20 2670,20 2670,30 2680,30 2680,40 2690,40 2690,50 2700,50 
	2700,60 2720,60 2720,50 2740,50 2740,60 2750,60 2750,50 2760,50 2760,40 2810,40 2810,30 2850,30 2850,40 2870,40 2870,50 
	2890,50 2890,40 2900,40 2900,30 2910,30 2910,20 2930,20 2930,30 2940,30 2940,40 2950,40 2950,50 2960,50 2960,60 2970,60 
	2970,50 2980,50 2980,40 2990,40 2990,30 3010,30 3010,10 3020,10 3020,0 3040,0 3040,10 3050,10 3050,30 3070,30 3070,40 3090,40 
	3090,50 3110,50 3110,40 3120,40 3120,30 3130,30 3130,20 3150,20 3150,30 3160,30 3160,40 3170,40 3170,50 3180,50 3180,60 
	3200,60 3200,50 3220,50 3220,60 3230,60 3230,50 3240,50 3240,40 3290,40 3290,30 3330,30 3330,40 3350,40 3350,50 3370,50 
	3370,40 3380,40 3380,30 3390,30 3390,20 3410,20 3410,30 3420,30 3420,40 3430,40 3430,50 3440,50 3440,60 3450,60 3450,50 
	3460,50 3460,40 3470,40 3470,30 3490,30 3490,10 3500,10 3500,0 3520,0 3520,10 3530,10 3530,30 3550,30 3550,40 3570,40 3570,50 
	3590,50 3590,40 3600,40 3600,30 3610,30 3610,20 3630,20 3630,30 3640,30 3640,40 3650,40 3650,50 3660,50 3660,60 3680,60 
	3680,50 3700,50 3700,60 3710,60 3710,50 3720,50 3720,40 3770,40 3770,30 3810,30 3810,40 3830,40 3830,50 3850,50 3850,40 
	3860,40 3860,30 3870,30 3870,20 3890,20 3890,30 3900,30 3900,40 3910,40 3910,50 3920,50 3920,60 3930,60 3930,50 3940,50 
	3940,40 3950,40 3950,30 3970,30 3970,10 3980,10 3980,0 4000,0 4000,10 4010,10 4010,30 4030,30 4030,40 4050,40 4050,50 4070,50 
	4070,40 4080,40 4080,30 4090,30 4090,20 4110,20 4110,30 4120,30 4120,40 4130,40 4130,50 4140,50 4140,60 4160,60 4160,50 
	4180,50 4180,60 4190,60 4190,50 4200,50 4200,40 4250,40 4250,30 4290,30 4290,40 4310,40 4310,50 4330,50 4330,40 4340,40 
	4340,30 4350,30 4350,20 4370,20 4370,30 4380,30 4380,40 4390,40 4390,50 4400,50 4400,60 4410,60 4410,50 4420,50 4420,40 
	4430,40 4430,30 4450,30 4450,10 4460,10 4460,0 4480,0 4480,10 4490,10 4490,30 4510,30 4510,40 4530,40 4530,50 4550,50 4550,40 
	4560,40 4560,30 4570,30 4570,20 4590,20 4590,30 4600,30 4600,40 4610,40 4610,50 4620,50 4620,60 4640,60 4640,50 4660,50 
	4660,60 4670,60 4670,50 4680,50 4680,40 4730,40 4730,30 4770,30 4770,40 4790,40 4790,50 4810,50 4810,40 4820,40 4820,30 
	4830,30 4830,20 4850,20 4850,30 4860,30 4860,40 4870,40 4870,50 4880,50 4880,60 4890,60 4890,50 4900,50 4900,40 4910,40 
	4910,30 4930,30 4930,10 4940,10 4940,0 4960,0 4960,10 4970,10 4970,30 4990,30 4990,40 5010,40 5010,50 5030,50 5030,40 5040,40 
	5040,30 5050,30 5050,20 5070,20 5070,30 5080,30 5080,40 5090,40 5090,50 5100,50 5100,60 5120,60 5120,50 5140,50 5140,60 
	5150,60 5150,50 5160,50 5160,40 5210,40 5210,30 5250,30 5250,40 5270,40 5270,50 5290,50 5290,40 5300,40 5300,30 5310,30 
	5310,20 5330,20 5330,30 5340,30 5340,40 5350,40 5350,50 5360,50 5360,60 5370,60 5370,50 5380,50 5380,40 5390,40 5390,30 
	5410,30 5410,10 5420,10 5420,0 5440,0 5440,10 5450,10 5450,30 5470,30 5470,40 5490,40 5490,50 5510,50 5510,40 5520,40 5520,30 
	5530,30 5530,20 5550,20 5550,30 5560,30 5560,40 5570,40 5570,50 5580,50 5580,60 5600,60 5600,50 5620,50 5620,60 5630,60 
	5630,50 5640,50 5640,40 5690,40 5690,30 5730,30 5730,40 5750,40 5750,50 "/>
<g>
	<rect x="1920" y="289" class="st3" width="10" height="10"/>
	<rect x="1940" y="289" class="st3" width="10" height="10"/>
	<rect x="1980" y="289" class="st3" width="10" height="10"/>
	<rect x="2000" y="289" class="st3" width="10" height="10"/>
	<rect x="2020" y="289" class="st3" width="10" height="10"/>
	<rect x="2040" y="289" class="st3" width="10" height="10"/>
	<rect x="2060" y="289" class="st3" width="10" height="10"/>
	<rect x="2080" y="289" class="st3" width="10" height="10"/>
	<rect x="2100" y="289" class="st3" width="10" height="10"/>
	<rect x="2120" y="289" class="st3" width="10" height="10"/>
	<rect x="2160" y="289" class="st3" width="10" height="10"/>
	<rect x="2180" y="289" class="st3" width="10" height="10"/>
	<rect x="2200" y="289" class="st3" width="10" height="10"/>
	<rect x="2220" y="289" class="st3" width="10" height="10"/>
	<rect x="2240" y="289" class="st3" width="10" height="10"/>
	<rect x="2260" y="289" class="st3" width="10" height="10"/>
	<rect x="2280" y="289" class="st3" width="10" height="10"/>
	<rect x="2300" y="289" class="st3" width="10" height="10"/>
	<rect x="2340" y="289" class="st3" width="10" height="10"/>
	<rect x="2360" y="289" class="st3" width="10" height="10"/>
	<rect x="2380" y="289" class="st3" width="10" height="10"/>
	<rect x="1930" y="279" class="st3" width="10" height="10"/>
	<rect x="1950" y="279" class="st3" width="10" height="10"/>
	<polygon class="st3" points="1970,279 1970,289 1960,289 1960,299 1970,299 1970,289 1980,289 1980,279 	"/>
	<rect x="1990" y="279" class="st3" width="10" height="10"/>
	<rect x="2010" y="279" class="st3" width="10" height="10"/>
	<rect x="2030" y="279" class="st3" width="10" height="10"/>
	<rect x="2050" y="279" class="st3" width="10" height="10"/>
	<rect x="2070" y="279" class="st3" width="10" height="10"/>
	<rect x="2090" y="279" class="st3" width="10" height="10"/>
	<rect x="2110" y="279" class="st3" width="10" height="10"/>
	<rect x="2130" y="279" class="st3" width="10" height="10"/>
	<polygon class="st3" points="2150,279 2150,289 2140,289 2140,299 2150,299 2150,289 2160,289 2160,279 	"/>
	<rect x="2170" y="279" class="st3" width="10" height="10"/>
	<rect x="2190" y="279" class="st3" width="10" height="10"/>
	<rect x="2210" y="279" class="st3" width="10" height="10"/>
	<rect x="2230" y="279" class="st3" width="10" height="10"/>
	<rect x="2250" y="279" class="st3" width="10" height="10"/>
	<rect x="2270" y="279" class="st3" width="10" height="10"/>
	<rect x="2290" y="279" class="st3" width="10" height="10"/>
	<rect x="2310" y="279" class="st3" width="10" height="10"/>
	<polygon class="st3" points="2330,279 2330,289 2320,289 2320,299 2330,299 2330,289 2340,289 2340,279 	"/>
	<rect x="2350" y="279" class="st3" width="10" height="10"/>
	<rect x="2370" y="279" class="st3" width="10" height="10"/>
	<rect x="2390" y="279" class="st3" width="10" height="10"/>
	<rect x="2880" y="289" class="st3" width="10" height="10"/>
	<rect x="2900" y="289" class="st3" width="10" height="10"/>
	<rect x="2940" y="289" class="st3" width="10" height="10"/>
	<rect x="2960" y="289" class="st3" width="10" height="10"/>
	<rect x="2980" y="289" class="st3" width="10" height="10"/>
	<rect x="3000" y="289" class="st3" width="10" height="10"/>
	<rect x="3020" y="289" class="st3" width="10" height="10"/>
	<rect x="3040" y="289" class="st3" width="10" height="10"/>
	<rect x="3060" y="289" class="st3" width="10" height="10"/>
	<rect x="3080" y="289" class="st3" width="10" height="10"/>
	<rect x="3120" y="289" class="st3" width="10" height="10"/>
	<rect x="3140" y="289" class="st3" width="10" height="10"/>
	<rect x="3160" y="289" class="st3" width="10" height="10"/>
	<rect x="3180" y="289" class="st3" width="10" height="10"/>
	<rect x="3200" y="289" class="st3" width="10" height="10"/>
	<rect x="3220" y="289" class="st3" width="10" height="10"/>
	<rect x="3240" y="289" class="st3" width="10" height="10"/>
	<rect x="3260" y="289" class="st3" width="10" height="10"/>
	<rect x="3300" y="289" class="st3" width="10" height="10"/>
	<rect x="3320" y="289" class="st3" width="10" height="10"/>
	<rect x="3340" y="289" class="st3" width="10" height="10"/>
	<rect x="2890" y="279" class="st3" width="10" height="10"/>
	<rect x="2910" y="279" class="st3" width="10" height="10"/>
	<polygon class="st3" points="2930,279 2930,289 2920,289 2920,299 2930,299 2930,289 2940,289 2940,279 	"/>
	<rect x="2950" y="279" class="st3" width="10" height="10"/>
	<rect x="2970" y="279" class="st3" width="10" height="10"/>
	<rect x="2990" y="279" class="st3" width="10" height="10"/>
	<rect x="3010" y="279" class="st3" width="10" height="10"/>
	<rect x="3030" y="279" class="st3" width="10" height="10"/>
	<rect x="3050" y="279" class="st3" width="10" height="10"/>
	<rect x="3070" y="279" class="st3" width="10" height="10"/>
	<rect x="3090" y="279" class="st3" width="10" height="10"/>
	<polygon class="st3" points="3110,279 3110,289 3100,289 3100,299 3110,299 3110,289 3120,289 3120,279 	"/>
	<rect x="3130" y="279" class="st3" width="10" height="10"/>
	<rect x="3150" y="279" class="st3" width="10" height="10"/>
	<rect x="3170" y="279" class="st3" width="10" height="10"/>
	<rect x="3190" y="279" class="st3" width="10" height="10"/>
	<rect x="3210" y="279" class="st3" width="10" height="10"/>
	<rect x="3230" y="279" class="st3" width="10" height="10"/>
	<rect x="3250" y="279" class="st3" width="10" height="10"/>
	<rect x="3270" y="279" class="st3" width="10" height="10"/>
	<polygon class="st3" points="3290,279 3290,289 3280,289 3280,299 3290,299 3290,289 3300,289 3300,279 	"/>
	<rect x="3310" y="279" class="st3" width="10" height="10"/>
	<rect x="3330" y="279" class="st3" width="10" height="10"/>
	<rect x="3350" y="279" class="st3" width="10" height="10"/>
	<rect x="2400" y="289" class="st3" width="10" height="10"/>
	<rect x="2420" y="289" class="st3" width="10" height="10"/>
	<rect x="2460" y="289" class="st3" width="10" height="10"/>
	<rect x="2480" y="289" class="st3" width="10" height="10"/>
	<rect x="2500" y="289" class="st3" width="10" height="10"/>
	<rect x="2520" y="289" class="st3" width="10" height="10"/>
	<rect x="2540" y="289" class="st3" width="10" height="10"/>
	<rect x="2560" y="289" class="st3" width="10" height="10"/>
	<rect x="2580" y="289" class="st3" width="10" height="10"/>
	<rect x="2600" y="289" class="st3" width="10" height="10"/>
	<rect x="2640" y="289" class="st3" width="10" height="10"/>
	<rect x="2660" y="289" class="st3" width="10" height="10"/>
	<rect x="2680" y="289" class="st3" width="10" height="10"/>
	<rect x="2700" y="289" class="st3" width="10" height="10"/>
	<rect x="2720" y="289" class="st3" width="10" height="10"/>
	<rect x="2740" y="289" class="st3" width="10" height="10"/>
	<rect x="2760" y="289" class="st3" width="10" height="10"/>
	<rect x="2780" y="289" class="st3" width="10" height="10"/>
	<rect x="2820" y="289" class="st3" width="10" height="10"/>
	<rect x="2840" y="289" class="st3" width="10" height="10"/>
	<rect x="2860" y="289" class="st3" width="10" height="10"/>
	<rect x="2410" y="279" class="st3" width="10" height="10"/>
	<rect x="2430" y="279" class="st3" width="10" height="10"/>
	<polygon class="st3" points="2450,279 2450,289 2440,289 2440,299 2450,299 2450,289 2460,289 2460,279 	"/>
	<rect x="2470" y="279" class="st3" width="10" height="10"/>
	<rect x="2490" y="279" class="st3" width="10" height="10"/>
	<rect x="2510" y="279" class="st3" width="10" height="10"/>
	<rect x="2530" y="279" class="st3" width="10" height="10"/>
	<rect x="2550" y="279" class="st3" width="10" height="10"/>
	<rect x="2570" y="279" class="st3" width="10" height="10"/>
	<rect x="2590" y="279" class="st3" width="10" height="10"/>
	<rect x="2610" y="279" class="st3" width="10" height="10"/>
	<polygon class="st3" points="2630,279 2630,289 2620,289 2620,299 2630,299 2630,289 2640,289 2640,279 	"/>
	<rect x="2650" y="279" class="st3" width="10" height="10"/>
	<rect x="2670" y="279" class="st3" width="10" height="10"/>
	<rect x="2690" y="279" class="st3" width="10" height="10"/>
	<rect x="2710" y="279" class="st3" width="10" height="10"/>
	<rect x="2730" y="279" class="st3" width="10" height="10"/>
	<rect x="2750" y="279" class="st3" width="10" height="10"/>
	<rect x="2770" y="279" class="st3" width="10" height="10"/>
	<rect x="2790" y="279" class="st3" width="10" height="10"/>
	<polygon class="st3" points="2810,279 2810,289 2800,289 2800,299 2810,299 2810,289 2820,289 2820,279 	"/>
	<rect x="2830" y="279" class="st3" width="10" height="10"/>
	<rect x="2850" y="279" class="st3" width="10" height="10"/>
	<rect x="2870" y="279" class="st3" width="10" height="10"/>
	<rect x="3360" y="289" class="st3" width="10" height="10"/>
	<rect x="3380" y="289" class="st3" width="10" height="10"/>
	<rect x="3420" y="289" class="st3" width="10" height="10"/>
	<rect x="3440" y="289" class="st3" width="10" height="10"/>
	<rect x="3460" y="289" class="st3" width="10" height="10"/>
	<rect x="3480" y="289" class="st3" width="10" height="10"/>
	<rect x="3500" y="289" class="st3" width="10" height="10"/>
	<rect x="3520" y="289" class="st3" width="10" height="10"/>
	<rect x="3540" y="289" class="st3" width="10" height="10"/>
	<rect x="3560" y="289" class="st3" width="10" height="10"/>
	<rect x="3600" y="289" class="st3" width="10" height="10"/>
	<rect x="3620" y="289" class="st3" width="10" height="10"/>
	<rect x="3640" y="289" class="st3" width="10" height="10"/>
	<rect x="3660" y="289" class="st3" width="10" height="10"/>
	<rect x="3680" y="289" class="st3" width="10" height="10"/>
	<rect x="3700" y="289" class="st3" width="10" height="10"/>
	<rect x="3720" y="289" class="st3" width="10" height="10"/>
	<rect x="3740" y="289" class="st3" width="10" height="10"/>
	<rect x="3780" y="289" class="st3" width="10" height="10"/>
	<rect x="3800" y="289" class="st3" width="10" height="10"/>
	<rect x="3820" y="289" class="st3" width="10" height="10"/>
	<rect x="3370" y="279" class="st3" width="10" height="10"/>
	<rect x="3390" y="279" class="st3" width="10" height="10"/>
	<polygon class="st3" points="3410,279 3410,289 3400,289 3400,299 3410,299 3410,289 3420,289 3420,279 	"/>
	<rect x="3430" y="279" class="st3" width="10" height="10"/>
	<rect x="3450" y="279" class="st3" width="10" height="10"/>
	<rect x="3470" y="279" class="st3" width="10" height="10"/>
	<rect x="3490" y="279" class="st3" width="10" height="10"/>
	<rect x="3510" y="279" class="st3" width="10" height="10"/>
	<rect x="3530" y="279" class="st3" width="10" height="10"/>
	<rect x="3550" y="279" class="st3" width="10" height="10"/>
	<rect x="3570" y="279" class="st3" width="10" height="10"/>
	<polygon class="st3" points="3590,279 3590,289 3580,289 3580,299 3590,299 3590,289 3600,289 3600,279 	"/>
	<rect x="3610" y="279" class="st3" width="10" height="10"/>
	<rect x="3630" y="279" class="st3" width="10" height="10"/>
	<rect x="3650" y="279" class="st3" width="10" height="10"/>
	<rect x="3670" y="279" class="st3" width="10" height="10"/>
	<rect x="3690" y="279" class="st3" width="10" height="10"/>
	<rect x="3710" y="279" class="st3" width="10" height="10"/>
	<rect x="3730" y="279" class="st3" width="10" height="10"/>
	<rect x="3750" y="279" class="st3" width="10" height="10"/>
	<polygon class="st3" points="3770,279 3770,289 3760,289 3760,299 3770,299 3770,289 3780,289 3780,279 	"/>
	<rect x="3790" y="279" class="st3" width="10" height="10"/>
	<rect x="3810" y="279" class="st3" width="10" height="10"/>
	<rect x="3830" y="279" class="st3" width="10" height="10"/>
	<rect y="289" class="st3" width="10" height="10"/>
	<rect x="20" y="289" class="st3" width="10" height="10"/>
	<rect x="60" y="289" class="st3" width="10" height="10"/>
	<rect x="80" y="289" class="st3" width="10" height="10"/>
	<rect x="100" y="289" class="st3" width="10" height="10"/>
	<rect x="120" y="289" class="st3" width="10" height="10"/>
	<rect x="140" y="289" class="st3" width="10" height="10"/>
	<rect x="160" y="289" class="st3" width="10" height="10"/>
	<rect x="180" y="289" class="st3" width="10" height="10"/>
	<rect x="200" y="289" class="st3" width="10" height="10"/>
	<rect x="240" y="289" class="st3" width="10" height="10"/>
	<rect x="260" y="289" class="st3" width="10" height="10"/>
	<rect x="280" y="289" class="st3" width="10" height="10"/>
	<rect x="300" y="289" class="st3" width="10" height="10"/>
	<rect x="320" y="289" class="st3" width="10" height="10"/>
	<rect x="340" y="289" class="st3" width="10" height="10"/>
	<rect x="360" y="289" class="st3" width="10" height="10"/>
	<rect x="380" y="289" class="st3" width="10" height="10"/>
	<rect x="420" y="289" class="st3" width="10" height="10"/>
	<rect x="440" y="289" class="st3" width="10" height="10"/>
	<rect x="460" y="289" class="st3" width="10" height="10"/>
	<rect x="10" y="279" class="st3" width="10" height="10"/>
	<rect x="30" y="279" class="st3" width="10" height="10"/>
	<polygon class="st3" points="50,279 50,289 40,289 40,299 50,299 50,289 60,289 60,279 	"/>
	<rect x="70" y="279" class="st3" width="10" height="10"/>
	<rect x="90" y="279" class="st3" width="10" height="10"/>
	<rect x="110" y="279" class="st3" width="10" height="10"/>
	<rect x="130" y="279" class="st3" width="10" height="10"/>
	<rect x="150" y="279" class="st3" width="10" height="10"/>
	<rect x="170" y="279" class="st3" width="10" height="10"/>
	<rect x="190" y="279" class="st3" width="10" height="10"/>
	<rect x="210" y="279" class="st3" width="10" height="10"/>
	<polygon class="st3" points="230,279 230,289 220,289 220,299 230,299 230,289 240,289 240,279 	"/>
	<rect x="250" y="279" class="st3" width="10" height="10"/>
	<rect x="270" y="279" class="st3" width="10" height="10"/>
	<rect x="290" y="279" class="st3" width="10" height="10"/>
	<rect x="310" y="279" class="st3" width="10" height="10"/>
	<rect x="330" y="279" class="st3" width="10" height="10"/>
	<rect x="350" y="279" class="st3" width="10" height="10"/>
	<rect x="370" y="279" class="st3" width="10" height="10"/>
	<rect x="390" y="279" class="st3" width="10" height="10"/>
	<polygon class="st3" points="410,279 410,289 400,289 400,299 410,299 410,289 420,289 420,279 	"/>
	<rect x="430" y="279" class="st3" width="10" height="10"/>
	<rect x="450" y="279" class="st3" width="10" height="10"/>
	<rect x="470" y="279" class="st3" width="10" height="10"/>
	<rect x="960" y="289" class="st3" width="10" height="10"/>
	<rect x="980" y="289" class="st3" width="10" height="10"/>
	<rect x="1020" y="289" class="st3" width="10" height="10"/>
	<rect x="1040" y="289" class="st3" width="10" height="10"/>
	<rect x="1060" y="289" class="st3" width="10" height="10"/>
	<rect x="1080" y="289" class="st3" width="10" height="10"/>
	<rect x="1100" y="289" class="st3" width="10" height="10"/>
	<rect x="1120" y="289" class="st3" width="10" height="10"/>
	<rect x="1140" y="289" class="st3" width="10" height="10"/>
	<rect x="1160" y="289" class="st3" width="10" height="10"/>
	<rect x="1200" y="289" class="st3" width="10" height="10"/>
	<rect x="1220" y="289" class="st3" width="10" height="10"/>
	<rect x="1240" y="289" class="st3" width="10" height="10"/>
	<rect x="1260" y="289" class="st3" width="10" height="10"/>
	<rect x="1280" y="289" class="st3" width="10" height="10"/>
	<rect x="1300" y="289" class="st3" width="10" height="10"/>
	<rect x="1320" y="289" class="st3" width="10" height="10"/>
	<rect x="1340" y="289" class="st3" width="10" height="10"/>
	<rect x="1380" y="289" class="st3" width="10" height="10"/>
	<rect x="1400" y="289" class="st3" width="10" height="10"/>
	<rect x="1420" y="289" class="st3" width="10" height="10"/>
	<rect x="970" y="279" class="st3" width="10" height="10"/>
	<rect x="990" y="279" class="st3" width="10" height="10"/>
	<polygon class="st3" points="1010,279 1010,289 1000,289 1000,299 1010,299 1010,289 1020,289 1020,279 	"/>
	<rect x="1030" y="279" class="st3" width="10" height="10"/>
	<rect x="1050" y="279" class="st3" width="10" height="10"/>
	<rect x="1070" y="279" class="st3" width="10" height="10"/>
	<rect x="1090" y="279" class="st3" width="10" height="10"/>
	<rect x="1110" y="279" class="st3" width="10" height="10"/>
	<rect x="1130" y="279" class="st3" width="10" height="10"/>
	<rect x="1150" y="279" class="st3" width="10" height="10"/>
	<rect x="1170" y="279" class="st3" width="10" height="10"/>
	<polygon class="st3" points="1190,279 1190,289 1180,289 1180,299 1190,299 1190,289 1200,289 1200,279 	"/>
	<rect x="1210" y="279" class="st3" width="10" height="10"/>
	<rect x="1230" y="279" class="st3" width="10" height="10"/>
	<rect x="1250" y="279" class="st3" width="10" height="10"/>
	<rect x="1270" y="279" class="st3" width="10" height="10"/>
	<rect x="1290" y="279" class="st3" width="10" height="10"/>
	<rect x="1310" y="279" class="st3" width="10" height="10"/>
	<rect x="1330" y="279" class="st3" width="10" height="10"/>
	<rect x="1350" y="279" class="st3" width="10" height="10"/>
	<polygon class="st3" points="1370,279 1370,289 1360,289 1360,299 1370,299 1370,289 1380,289 1380,279 	"/>
	<rect x="1390" y="279" class="st3" width="10" height="10"/>
	<rect x="1410" y="279" class="st3" width="10" height="10"/>
	<rect x="1430" y="279" class="st3" width="10" height="10"/>
	<rect x="480" y="289" class="st3" width="10" height="10"/>
	<rect x="500" y="289" class="st3" width="10" height="10"/>
	<rect x="540" y="289" class="st3" width="10" height="10"/>
	<rect x="560" y="289" class="st3" width="10" height="10"/>
	<rect x="580" y="289" class="st3" width="10" height="10"/>
	<rect x="600" y="289" class="st3" width="10" height="10"/>
	<rect x="620" y="289" class="st3" width="10" height="10"/>
	<rect x="640" y="289" class="st3" width="10" height="10"/>
	<rect x="660" y="289" class="st3" width="10" height="10"/>
	<rect x="680" y="289" class="st3" width="10" height="10"/>
	<rect x="720" y="289" class="st3" width="10" height="10"/>
	<rect x="740" y="289" class="st3" width="10" height="10"/>
	<rect x="760" y="289" class="st3" width="10" height="10"/>
	<rect x="780" y="289" class="st3" width="10" height="10"/>
	<rect x="800" y="289" class="st3" width="10" height="10"/>
	<rect x="820" y="289" class="st3" width="10" height="10"/>
	<rect x="840" y="289" class="st3" width="10" height="10"/>
	<rect x="860" y="289" class="st3" width="10" height="10"/>
	<rect x="900" y="289" class="st3" width="10" height="10"/>
	<rect x="920" y="289" class="st3" width="10" height="10"/>
	<rect x="940" y="289" class="st3" width="10" height="10"/>
	<rect x="490" y="279" class="st3" width="10" height="10"/>
	<rect x="510" y="279" class="st3" width="10" height="10"/>
	<polygon class="st3" points="530,279 530,289 520,289 520,299 530,299 530,289 540,289 540,279 	"/>
	<rect x="550" y="279" class="st3" width="10" height="10"/>
	<rect x="570" y="279" class="st3" width="10" height="10"/>
	<rect x="590" y="279" class="st3" width="10" height="10"/>
	<rect x="610" y="279" class="st3" width="10" height="10"/>
	<rect x="630" y="279" class="st3" width="10" height="10"/>
	<rect x="650" y="279" class="st3" width="10" height="10"/>
	<rect x="670" y="279" class="st3" width="10" height="10"/>
	<rect x="690" y="279" class="st3" width="10" height="10"/>
	<polygon class="st3" points="710,279 710,289 700,289 700,299 710,299 710,289 720,289 720,279 	"/>
	<rect x="730" y="279" class="st3" width="10" height="10"/>
	<rect x="750" y="279" class="st3" width="10" height="10"/>
	<rect x="770" y="279" class="st3" width="10" height="10"/>
	<rect x="790" y="279" class="st3" width="10" height="10"/>
	<rect x="810" y="279" class="st3" width="10" height="10"/>
	<rect x="830" y="279" class="st3" width="10" height="10"/>
	<rect x="850" y="279" class="st3" width="10" height="10"/>
	<rect x="870" y="279" class="st3" width="10" height="10"/>
	<polygon class="st3" points="890,279 890,289 880,289 880,299 890,299 890,289 900,289 900,279 	"/>
	<rect x="910" y="279" class="st3" width="10" height="10"/>
	<rect x="930" y="279" class="st3" width="10" height="10"/>
	<rect x="950" y="279" class="st3" width="10" height="10"/>
	<rect x="1440" y="289" class="st3" width="10" height="10"/>
	<rect x="1460" y="289" class="st3" width="10" height="10"/>
	<rect x="1500" y="289" class="st3" width="10" height="10"/>
	<rect x="1520" y="289" class="st3" width="10" height="10"/>
	<rect x="1540" y="289" class="st3" width="10" height="10"/>
	<rect x="1560" y="289" class="st3" width="10" height="10"/>
	<rect x="1580" y="289" class="st3" width="10" height="10"/>
	<rect x="1600" y="289" class="st3" width="10" height="10"/>
	<rect x="1620" y="289" class="st3" width="10" height="10"/>
	<rect x="1640" y="289" class="st3" width="10" height="10"/>
	<rect x="1680" y="289" class="st3" width="10" height="10"/>
	<rect x="1700" y="289" class="st3" width="10" height="10"/>
	<rect x="1720" y="289" class="st3" width="10" height="10"/>
	<rect x="1740" y="289" class="st3" width="10" height="10"/>
	<rect x="1760" y="289" class="st3" width="10" height="10"/>
	<rect x="1780" y="289" class="st3" width="10" height="10"/>
	<rect x="1800" y="289" class="st3" width="10" height="10"/>
	<rect x="1820" y="289" class="st3" width="10" height="10"/>
	<rect x="1860" y="289" class="st3" width="10" height="10"/>
	<rect x="1880" y="289" class="st3" width="10" height="10"/>
	<rect x="1900" y="289" class="st3" width="10" height="10"/>
	<rect x="1450" y="279" class="st3" width="10" height="10"/>
	<rect x="1470" y="279" class="st3" width="10" height="10"/>
	<polygon class="st3" points="1490,279 1490,289 1480,289 1480,299 1490,299 1490,289 1500,289 1500,279 	"/>
	<rect x="1510" y="279" class="st3" width="10" height="10"/>
	<rect x="1530" y="279" class="st3" width="10" height="10"/>
	<rect x="1550" y="279" class="st3" width="10" height="10"/>
	<rect x="1570" y="279" class="st3" width="10" height="10"/>
	<rect x="1590" y="279" class="st3" width="10" height="10"/>
	<rect x="1610" y="279" class="st3" width="10" height="10"/>
	<rect x="1630" y="279" class="st3" width="10" height="10"/>
	<rect x="1650" y="279" class="st3" width="10" height="10"/>
	<polygon class="st3" points="1670,279 1670,289 1660,289 1660,299 1670,299 1670,289 1680,289 1680,279 	"/>
	<rect x="1690" y="279" class="st3" width="10" height="10"/>
	<rect x="1710" y="279" class="st3" width="10" height="10"/>
	<rect x="1730" y="279" class="st3" width="10" height="10"/>
	<rect x="1750" y="279" class="st3" width="10" height="10"/>
	<rect x="1770" y="279" class="st3" width="10" height="10"/>
	<rect x="1790" y="279" class="st3" width="10" height="10"/>
	<rect x="1810" y="279" class="st3" width="10" height="10"/>
	<rect x="1830" y="279" class="st3" width="10" height="10"/>
	<polygon class="st3" points="1850,279 1850,289 1840,289 1840,299 1850,299 1850,289 1860,289 1860,279 	"/>
	<rect x="1870" y="279" class="st3" width="10" height="10"/>
	<rect x="1890" y="279" class="st3" width="10" height="10"/>
	<rect x="1910" y="279" class="st3" width="10" height="10"/>
	<rect x="3840" y="289" class="st3" width="10" height="10"/>
	<rect x="3860" y="289" class="st3" width="10" height="10"/>
	<rect x="3900" y="289" class="st3" width="10" height="10"/>
	<rect x="3920" y="289" class="st3" width="10" height="10"/>
	<rect x="3940" y="289" class="st3" width="10" height="10"/>
	<rect x="3960" y="289" class="st3" width="10" height="10"/>
	<rect x="3980" y="289" class="st3" width="10" height="10"/>
	<rect x="4000" y="289" class="st3" width="10" height="10"/>
	<rect x="4020" y="289" class="st3" width="10" height="10"/>
	<rect x="4040" y="289" class="st3" width="10" height="10"/>
	<rect x="4080" y="289" class="st3" width="10" height="10"/>
	<rect x="4100" y="289" class="st3" width="10" height="10"/>
	<rect x="4120" y="289" class="st3" width="10" height="10"/>
	<rect x="4140" y="289" class="st3" width="10" height="10"/>
	<rect x="4160" y="289" class="st3" width="10" height="10"/>
	<rect x="4180" y="289" class="st3" width="10" height="10"/>
	<rect x="4200" y="289" class="st3" width="10" height="10"/>
	<rect x="4220" y="289" class="st3" width="10" height="10"/>
	<rect x="4260" y="289" class="st3" width="10" height="10"/>
	<rect x="4280" y="289" class="st3" width="10" height="10"/>
	<rect x="4300" y="289" class="st3" width="10" height="10"/>
	<rect x="3850" y="279" class="st3" width="10" height="10"/>
	<rect x="3870" y="279" class="st3" width="10" height="10"/>
	<polygon class="st3" points="3890,279 3890,289 3880,289 3880,299 3890,299 3890,289 3900,289 3900,279 	"/>
	<rect x="3910" y="279" class="st3" width="10" height="10"/>
	<rect x="3930" y="279" class="st3" width="10" height="10"/>
	<rect x="3950" y="279" class="st3" width="10" height="10"/>
	<rect x="3970" y="279" class="st3" width="10" height="10"/>
	<rect x="3990" y="279" class="st3" width="10" height="10"/>
	<rect x="4010" y="279" class="st3" width="10" height="10"/>
	<rect x="4030" y="279" class="st3" width="10" height="10"/>
	<rect x="4050" y="279" class="st3" width="10" height="10"/>
	<polygon class="st3" points="4070,279 4070,289 4060,289 4060,299 4070,299 4070,289 4080,289 4080,279 	"/>
	<rect x="4090" y="279" class="st3" width="10" height="10"/>
	<rect x="4110" y="279" class="st3" width="10" height="10"/>
	<rect x="4130" y="279" class="st3" width="10" height="10"/>
	<rect x="4150" y="279" class="st3" width="10" height="10"/>
	<rect x="4170" y="279" class="st3" width="10" height="10"/>
	<rect x="4190" y="279" class="st3" width="10" height="10"/>
	<rect x="4210" y="279" class="st3" width="10" height="10"/>
	<rect x="4230" y="279" class="st3" width="10" height="10"/>
	<polygon class="st3" points="4250,279 4250,289 4240,289 4240,299 4250,299 4250,289 4260,289 4260,279 	"/>
	<rect x="4270" y="279" class="st3" width="10" height="10"/>
	<rect x="4290" y="279" class="st3" width="10" height="10"/>
	<rect x="4310" y="279" class="st3" width="10" height="10"/>
	<rect x="4800" y="289" class="st3" width="10" height="10"/>
	<rect x="4820" y="289" class="st3" width="10" height="10"/>
	<rect x="4860" y="289" class="st3" width="10" height="10"/>
	<rect x="4880" y="289" class="st3" width="10" height="10"/>
	<rect x="4900" y="289" class="st3" width="10" height="10"/>
	<rect x="4920" y="289" class="st3" width="10" height="10"/>
	<rect x="4940" y="289" class="st3" width="10" height="10"/>
	<rect x="4960" y="289" class="st3" width="10" height="10"/>
	<rect x="4980" y="289" class="st3" width="10" height="10"/>
	<rect x="5000" y="289" class="st3" width="10" height="10"/>
	<rect x="5040" y="289" class="st3" width="10" height="10"/>
	<rect x="5060" y="289" class="st3" width="10" height="10"/>
	<rect x="5080" y="289" class="st3" width="10" height="10"/>
	<rect x="5100" y="289" class="st3" width="10" height="10"/>
	<rect x="5120" y="289" class="st3" width="10" height="10"/>
	<rect x="5140" y="289" class="st3" width="10" height="10"/>
	<rect x="5160" y="289" class="st3" width="10" height="10"/>
	<rect x="5180" y="289" class="st3" width="10" height="10"/>
	<rect x="5220" y="289" class="st3" width="10" height="10"/>
	<rect x="5240" y="289" class="st3" width="10" height="10"/>
	<rect x="5260" y="289" class="st3" width="10" height="10"/>
	<rect x="4810" y="279" class="st3" width="10" height="10"/>
	<rect x="4830" y="279" class="st3" width="10" height="10"/>
	<polygon class="st3" points="4850,279 4850,289 4840,289 4840,299 4850,299 4850,289 4860,289 4860,279 	"/>
	<rect x="4870" y="279" class="st3" width="10" height="10"/>
	<rect x="4890" y="279" class="st3" width="10" height="10"/>
	<rect x="4910" y="279" class="st3" width="10" height="10"/>
	<rect x="4930" y="279" class="st3" width="10" height="10"/>
	<rect x="4950" y="279" class="st3" width="10" height="10"/>
	<rect x="4970" y="279" class="st3" width="10" height="10"/>
	<rect x="4990" y="279" class="st3" width="10" height="10"/>
	<rect x="5010" y="279" class="st3" width="10" height="10"/>
	<polygon class="st3" points="5030,279 5030,289 5020,289 5020,299 5030,299 5030,289 5040,289 5040,279 	"/>
	<rect x="5050" y="279" class="st3" width="10" height="10"/>
	<rect x="5070" y="279" class="st3" width="10" height="10"/>
	<rect x="5090" y="279" class="st3" width="10" height="10"/>
	<rect x="5110" y="279" class="st3" width="10" height="10"/>
	<rect x="5130" y="279" class="st3" width="10" height="10"/>
	<rect x="5150" y="279" class="st3" width="10" height="10"/>
	<rect x="5170" y="279" class="st3" width="10" height="10"/>
	<rect x="5190" y="279" class="st3" width="10" height="10"/>
	<polygon class="st3" points="5210,279 5210,289 5200,289 5200,299 5210,299 5210,289 5220,289 5220,279 	"/>
	<rect x="5230" y="279" class="st3" width="10" height="10"/>
	<rect x="5250" y="279" class="st3" width="10" height="10"/>
	<rect x="5270" y="279" class="st3" width="10" height="10"/>
	<rect x="4320" y="289" class="st3" width="10" height="10"/>
	<rect x="4340" y="289" class="st3" width="10" height="10"/>
	<rect x="4380" y="289" class="st3" width="10" height="10"/>
	<rect x="4400" y="289" class="st3" width="10" height="10"/>
	<rect x="4420" y="289" class="st3" width="10" height="10"/>
	<rect x="4440" y="289" class="st3" width="10" height="10"/>
	<rect x="4460" y="289" class="st3" width="10" height="10"/>
	<rect x="4480" y="289" class="st3" width="10" height="10"/>
	<rect x="4500" y="289" class="st3" width="10" height="10"/>
	<rect x="4520" y="289" class="st3" width="10" height="10"/>
	<rect x="4560" y="289" class="st3" width="10" height="10"/>
	<rect x="4580" y="289" class="st3" width="10" height="10"/>
	<rect x="4600" y="289" class="st3" width="10" height="10"/>
	<rect x="4620" y="289" class="st3" width="10" height="10"/>
	<rect x="4640" y="289" class="st3" width="10" height="10"/>
	<rect x="4660" y="289" class="st3" width="10" height="10"/>
	<rect x="4680" y="289" class="st3" width="10" height="10"/>
	<rect x="4700" y="289" class="st3" width="10" height="10"/>
	<rect x="4740" y="289" class="st3" width="10" height="10"/>
	<rect x="4760" y="289" class="st3" width="10" height="10"/>
	<rect x="4780" y="289" class="st3" width="10" height="10"/>
	<rect x="4330" y="279" class="st3" width="10" height="10"/>
	<rect x="4350" y="279" class="st3" width="10" height="10"/>
	<polygon class="st3" points="4370,279 4370,289 4360,289 4360,299 4370,299 4370,289 4380,289 4380,279 	"/>
	<rect x="4390" y="279" class="st3" width="10" height="10"/>
	<rect x="4410" y="279" class="st3" width="10" height="10"/>
	<rect x="4430" y="279" class="st3" width="10" height="10"/>
	<rect x="4450" y="279" class="st3" width="10" height="10"/>
	<rect x="4470" y="279" class="st3" width="10" height="10"/>
	<rect x="4490" y="279" class="st3" width="10" height="10"/>
	<rect x="4510" y="279" class="st3" width="10" height="10"/>
	<rect x="4530" y="279" class="st3" width="10" height="10"/>
	<polygon class="st3" points="4550,279 4550,289 4540,289 4540,299 4550,299 4550,289 4560,289 4560,279 	"/>
	<rect x="4570" y="279" class="st3" width="10" height="10"/>
	<rect x="4590" y="279" class="st3" width="10" height="10"/>
	<rect x="4610" y="279" class="st3" width="10" height="10"/>
	<rect x="4630" y="279" class="st3" width="10" height="10"/>
	<rect x="4650" y="279" class="st3" width="10" height="10"/>
	<rect x="4670" y="279" class="st3" width="10" height="10"/>
	<rect x="4690" y="279" class="st3" width="10" height="10"/>
	<rect x="4710" y="279" class="st3" width="10" height="10"/>
	<polygon class="st3" points="4730,279 4730,289 4720,289 4720,299 4730,299 4730,289 4740,289 4740,279 	"/>
	<rect x="4750" y="279" class="st3" width="10" height="10"/>
	<rect x="4770" y="279" class="st3" width="10" height="10"/>
	<rect x="4790" y="279" class="st3" width="10" height="10"/>
	<rect x="5280" y="289" class="st3" width="10" height="10"/>
	<rect x="5300" y="289" class="st3" width="10" height="10"/>
	<rect x="5340" y="289" class="st3" width="10" height="10"/>
	<rect x="5360" y="289" class="st3" width="10" height="10"/>
	<rect x="5380" y="289" class="st3" width="10" height="10"/>
	<rect x="5400" y="289" class="st3" width="10" height="10"/>
	<rect x="5420" y="289" class="st3" width="10" height="10"/>
	<rect x="5440" y="289" class="st3" width="10" height="10"/>
	<rect x="5460" y="289" class="st3" width="10" height="10"/>
	<rect x="5480" y="289" class="st3" width="10" height="10"/>
	<rect x="5520" y="289" class="st3" width="10" height="10"/>
	<rect x="5540" y="289" class="st3" width="10" height="10"/>
	<rect x="5560" y="289" class="st3" width="10" height="10"/>
	<rect x="5580" y="289" class="st3" width="10" height="10"/>
	<rect x="5600" y="289" class="st3" width="10" height="10"/>
	<rect x="5620" y="289" class="st3" width="10" height="10"/>
	<rect x="5640" y="289" class="st3" width="10" height="10"/>
	<rect x="5660" y="289" class="st3" width="10" height="10"/>
	<rect x="5700" y="289" class="st3" width="10" height="10"/>
	<rect x="5720" y="289" class="st3" width="10" height="10"/>
	<rect x="5740" y="289" class="st3" width="10" height="10"/>
	<rect x="5290" y="279" class="st3" width="10" height="10"/>
	<rect x="5310" y="279" class="st3" width="10" height="10"/>
	<polygon class="st3" points="5330,279 5330,289 5320,289 5320,299 5330,299 5330,289 5340,289 5340,279 	"/>
	<rect x="5350" y="279" class="st3" width="10" height="10"/>
	<rect x="5370" y="279" class="st3" width="10" height="10"/>
	<rect x="5390" y="279" class="st3" width="10" height="10"/>
	<rect x="5410" y="279" class="st3" width="10" height="10"/>
	<rect x="5430" y="279" class="st3" width="10" height="10"/>
	<rect x="5450" y="279" class="st3" width="10" height="10"/>
	<rect x="5470" y="279" class="st3" width="10" height="10"/>
	<rect x="5490" y="279" class="st3" width="10" height="10"/>
	<polygon class="st3" points="5510,279 5510,289 5500,289 5500,299 5510,299 5510,289 5520,289 5520,279 	"/>
	<rect x="5530" y="279" class="st3" width="10" height="10"/>
	<rect x="5550" y="279" class="st3" width="10" height="10"/>
	<rect x="5570" y="279" class="st3" width="10" height="10"/>
	<rect x="5590" y="279" class="st3" width="10" height="10"/>
	<rect x="5610" y="279" class="st3" width="10" height="10"/>
	<rect x="5630" y="279" class="st3" width="10" height="10"/>
	<rect x="5650" y="279" class="st3" width="10" height="10"/>
	<rect x="5670" y="279" class="st3" width="10" height="10"/>
	<polygon class="st3" points="5690,279 5690,289 5680,289 5680,299 5690,299 5690,289 5700,289 5700,279 	"/>
	<rect x="5710" y="279" class="st3" width="10" height="10"/>
	<rect x="5730" y="279" class="st3" width="10" height="10"/>
	<rect x="5750" y="279" class="st3" width="10" height="10"/>
</g>
</svg>
