<?xml version="1.0" encoding="utf-8"?>
<!-- Generator: Adobe Illustrator 26.1.0, SVG Export Plug-In . SVG Version: 6.00 Build 0)  -->
<svg version="1.1" id="Layer_1" xmlns="http://www.w3.org/2000/svg" xmlns:xlink="http://www.w3.org/1999/xlink" x="0px" y="0px"
	 viewBox="0 0 512 512" style="enable-background:new 0 0 512 512;" xml:space="preserve">
<style type="text/css">
	.st0{fill:#BDDBFF;}
</style>
<polygon class="st0" points="0,144.7 0,333.9 33.4,333.9 33.4,378.4 66.8,378.4 66.8,411.8 100.2,411.8 100.2,445.2 167,445.2 
	167,478.6 278.3,478.6 278.3,512 445.2,512 445.2,445.2 411.8,445.2 411.8,378.4 445.2,378.4 445.2,345 478.6,345 478.6,300.5 
	512,300.5 512,144.7 478.6,144.7 478.6,100.2 445.2,100.2 445.2,66.8 411.8,66.8 411.8,33.4 345,33.4 345,0 167,0 167,33.4 
	100.2,33.4 100.2,66.8 66.8,66.8 66.8,100.2 33.4,100.2 33.4,144.7 "/>
<polygon points="411.8,345 411.8,378.4 445.2,378.4 445.2,345 478.6,345 478.6,300.5 445.2,300.5 445.2,345 "/>
<polygon points="411.8,33.4 345,33.4 345,66.8 411.8,66.8 411.8,100.2 445.2,100.2 445.2,144.7 478.6,144.7 478.6,300.5 512,300.5 
	512,144.7 478.6,144.7 478.6,100.2 445.2,100.2 445.2,66.8 411.8,66.8 "/>
<polygon points="100.2,66.8 66.8,66.8 66.8,100.2 100.2,100.2 100.2,66.8 167,66.8 167,33.4 345,33.4 345,0 167,0 167,33.4 
	100.2,33.4 "/>
<polygon points="0,144.7 0,333.9 33.4,333.9 33.4,144.7 66.8,144.7 66.8,100.2 33.4,100.2 33.4,144.7 "/>
<rect x="33.4" y="333.9" width="33.4" height="44.5"/>
<polygon points="167,411.8 100.2,411.8 100.2,445.2 167,445.2 167,478.6 278.3,478.6 278.3,512 478.6,512 478.6,445.2 445.2,445.2 
	445.2,478.6 278.3,478.6 278.3,445.2 167,445.2 "/>
<polygon points="411.8,445.2 445.2,445.2 445.2,411.8 411.8,411.8 "/>
<rect x="66.8" y="378.4" width="33.4" height="33.4"/>
<rect x="233.7" y="100.2" width="44.5" height="44.5"/>
<rect x="233.7" y="178.1" width="44.5" height="167"/>
<polygon points="378.4,411.8 411.8,411.8 411.8,378.4 378.4,378.4 "/>
</svg>
