<svg id="Group_24" data-name="Group 24" xmlns="http://www.w3.org/2000/svg" width="60" height="105" viewBox="0 0 60 105">
  <path id="Path_33" data-name="Path 33" d="M10,0V5h5v5h5v5H50V10h5V5h5V0Z" transform="translate(-5 0)" fill="#fff"/>
  <path id="Path_34" data-name="Path 34" d="M55,95V90H25v5H20v5h5v5H55v-5h5V95Z" transform="translate(-10 -45)" fill="#fff"/>
  <path id="Path_35" data-name="Path 35" d="M100,10v5H95v5H90V50h5v5h5V50h5V10Z" transform="translate(-45 -5)" fill="#fff"/>
  <path id="Path_36" data-name="Path 36" d="M0,10V50H5v5h5V50h5V20H10V15H5V10Z" transform="translate(0 -5)" fill="#283663"/>
  <path id="Path_37" data-name="Path 37" d="M45,180H20v5H15v5H10v5H60v-5H55v-5H50v-5Z" transform="translate(-5 -90)" fill="#fff"/>
  <path id="Path_38" data-name="Path 38" d="M5,110v5H0v40H5v-5h5v-5h5V115H10v-5Z" transform="translate(0 -55)" fill="#283663"/>
  <path id="Path_39" data-name="Path 39" d="M95,110v5H90v30h5v5h5v5h5V115h-5v-5Z" transform="translate(-45 -55)" fill="#fff"/>
</svg>
